<svg xmlns="http://www.w3.org/2000/svg" viewBox="0 0 400 300" width="406" height="306" class="illustration styles_illustrationTablet__1DWOa"><g id="_266_money_tree_flatline" data-name="#266_money_tree_flatline"><ellipse cx="164.11" cy="261.42" rx="41.92" ry="3.1" fill="#d1d3d4"></ellipse><path d="M247,152.11l-10.87,7.66s14.67,9.81,14.91,20.28L264.93,172S258.33,153.8,247,152.11Z" fill="#285430"></path><path d="M268.62,125.71v-3.1s-34.18,21.65-55.39,40.75c-.33-9.42-.71-17.87-1.09-25.57,7.37-13.31,25.18-43.19,41-52.07l-1.4-1.4s-12,8.16-19.81,17.64c0,0,.38-11,1.69-15.49l-1.87.19s-1.51,9.67-1.88,16l-18.28,24.19c-1.56-29.8-1.07-46.15,2-71.47l-4.83,4.2s-3.9,24.82-6.36,43c-6.48-15.72-18.92-44.49-27.52-55.69l-1.62,1.2s14,24.7,27.47,68c0,0,4.8,36.42,1.75,66.41A262,262,0,0,0,183.25,154c-3.15-13-7.83-36.33-7.83-36.33h-2.18l4.91,29.91a250.56,250.56,0,0,0-31.16-32l-1.13,1.22s9.53,10.35,20.62,25c-5.83-2.67-19.62-8.71-31.23-11.62l-1,.56s21.73,9.75,36.3,16.48c12,16.46,24.73,36.87,28.63,54C192.3,229.43,178,261.51,178,261.51a46.4,46.4,0,0,0,9.92,1.31c7.27.16,10-1.31,10-1.31s14.49-35.92,15.48-84.08c3.53-3.79,8.5-9.05,14.15-14.82,5.42-1.35,14.3-3.41,23.4-4.81V155l-18.23,2.38C244.88,145.1,259,131.84,268.62,125.71Z" fill="#fff"></path><path d="M188.92,263.34h-1a47,47,0,0,1-10-1.34.47.47,0,0,1-.32-.26.48.48,0,0,1,0-.42c.14-.32,14.36-32.28,21.14-60.17-3.22-14-13-32.49-28.44-53.58-14.4-6.65-36-16.33-36.18-16.42a.5.5,0,0,1,0-.9l1-.56a.52.52,0,0,1,.37-.05c10.6,2.66,23.12,8,29.5,10.83-10.44-13.58-19.3-23.23-19.39-23.33a.51.51,0,0,1,0-.68l1.13-1.22a.49.49,0,0,1,.69,0,249.32,249.32,0,0,1,30.05,30.63l-4.61-28.08a.49.49,0,0,1,.11-.4.51.51,0,0,1,.38-.18h2.18a.49.49,0,0,1,.49.4c.05.24,4.69,23.39,7.8,36.21a265.64,265.64,0,0,1,18.4,27.14c2.7-29.29-1.84-64.4-1.89-64.75C186.94,73.48,173,48.56,172.81,48.31a.5.5,0,0,1,.13-.65l1.62-1.19a.51.51,0,0,1,.7.09c8.3,10.82,20.12,37.82,26.87,54.1,2.45-17.8,6.08-41,6.12-41.2a.49.49,0,0,1,.16-.3L213.24,55a.49.49,0,0,1,.82.43c-3,24.94-3.5,41.49-2.06,70l17.37-23c.39-6.25,1.86-15.76,1.87-15.86a.5.5,0,0,1,.45-.41l1.87-.19a.5.5,0,0,1,.44.18.49.49,0,0,1,.09.45c-1,3.43-1.45,10.78-1.6,13.91,7.74-9,18.84-16.54,18.95-16.62a.51.51,0,0,1,.64.06l1.41,1.41a.51.51,0,0,1,.14.42.51.51,0,0,1-.25.37c-15.76,8.85-33.69,39-40.74,51.75.44,8.94.78,16.72,1.05,24.37,21.05-18.74,54.32-39.88,54.66-40.09a.49.49,0,0,1,.51,0,.51.51,0,0,1,.26.44v3.1a.52.52,0,0,1-.23.42c-7.84,5-19.56,15.28-34.85,30.55l16.78-2.19a.51.51,0,0,1,.39.12.5.5,0,0,1,.17.38v2.81a.51.51,0,0,1-.42.5c-8.84,1.36-17.49,3.33-23.23,4.76-5.71,5.85-10.69,11.13-13.9,14.57-1,47.61-15.37,83.71-15.51,84.07a.56.56,0,0,1-.23.25C198,262,195.46,263.34,188.92,263.34Zm-10.26-2.17a47.84,47.84,0,0,0,9.23,1.16c6.06.13,8.91-.9,9.57-1.19,1.11-2.83,14.43-37.95,15.37-83.72a.52.52,0,0,1,.14-.33c3.23-3.47,8.31-8.85,14.15-14.83a.53.53,0,0,1,.24-.14c5.66-1.41,14.22-3.37,23-4.75v-1.81l-17.66,2.3a.51.51,0,0,1-.52-.27.52.52,0,0,1,.1-.58c15.7-15.74,27.75-26.37,35.82-31.58v-1.91c-5.19,3.33-35.37,22.94-54.56,40.22a.49.49,0,0,1-.53.08.47.47,0,0,1-.3-.44c-.28-8-.63-16.15-1.09-25.57a.4.4,0,0,1,.06-.26c7-12.57,24.73-42.54,40.62-51.93l-.65-.66c-2,1.41-12.43,8.89-19.36,17.32a.52.52,0,0,1-.56.15.52.52,0,0,1-.33-.49c0-.43.36-10.07,1.52-14.9l-.77.08c-.28,1.86-1.49,10-1.81,15.53a.52.52,0,0,1-.1.27L212,127.11a.49.49,0,0,1-.89-.27c-1.51-28.94-1.09-45.59,1.84-70.27l-3.71,3.23c-.36,2.28-4,25.65-6.34,42.83a.5.5,0,0,1-.43.43.49.49,0,0,1-.52-.31C195.4,87,183.28,58.94,174.76,47.56l-.87.65c1.82,3.32,14.88,27.76,27.3,67.73.07.45,4.79,36.91,1.76,66.61a.5.5,0,0,1-.39.44.51.51,0,0,1-.54-.24,262,262,0,0,0-19.17-28.46.61.61,0,0,1-.09-.18c-2.88-11.89-7.11-32.79-7.75-36h-1.18l4.82,29.33a.5.5,0,0,1-.29.53.49.49,0,0,1-.59-.14A250.94,250.94,0,0,0,147,116.26l-.49.53c1.73,1.91,10.47,11.65,20.34,24.65a.5.5,0,0,1-.6.75c-5.44-2.49-19.25-8.56-30.84-11.51,4.47,2,22.67,10.2,35.29,16a.45.45,0,0,1,.2.16c15.78,21.6,25.44,39.82,28.71,54.16a.45.45,0,0,1,0,.23C193.34,227.26,180.57,256.8,178.66,261.17Zm90-135.46h0Z" fill="#231f20"></path><path d="M211.58,126.81a22,22,0,0,0-5.19,3.4" fill="#fff"></path><path d="M206.39,130.71a.51.51,0,0,1-.37-.17.5.5,0,0,1,0-.7,22.41,22.41,0,0,1,5.32-3.49.5.5,0,0,1,.39.92,21.88,21.88,0,0,0-5,3.31A.5.5,0,0,1,206.39,130.71Z" fill="#231f20"></path><path d="M286.42,139.46a56.68,56.68,0,0,1,.36-15.17,20.31,20.31,0,0,1-24.16,3c.74.44-3.19,7.84-2.69,9.33.81,2.42,5.08,3.78,7.24,4.49A24.5,24.5,0,0,0,286.42,139.46Z" fill="#285430"></path><path d="M246.69,71.1A55.76,55.76,0,0,1,257,55.62a59.08,59.08,0,0,0,14.33,9.64c-4.18,2.44-6.7,6.9-9,11.14-2.65,4.85-5.38,10.36-3.79,15.65-2.79-.69-5.6-1.3-8.42-1.81-3.27-.6-5.22.09-6-3.17C242.79,82.16,244.81,75.58,246.69,71.1Z" fill="#285430"></path><path d="M199.09,63.21c1.13-1.38,1.1-3.33,1.26-5.11.86-9.55,8.24-17.27,16.21-22.61a87.91,87.91,0,0,0,14.3,13.57c-1.05-.79-7,4.42-7.76,5.17a27.51,27.51,0,0,0-5.88,8.22c-.61,1.34-.83,3.52-1.64,4.66-1.28,1.81-1.55,1.25-4,.48Q205.27,65.58,199.09,63.21Z" fill="#285430"></path><path d="M230.68,117.12q8.23.72,16.43,1.85c.37,0,.83.18.89.55a.89.89,0,0,1-.29.68c-2.69,3.38-3.84,7.68-4.93,11.86-.47,1.79-.92,3.8,0,5.42-.38-.7-7.72,1.72-8.7,1.62-2.68-.26-2.54-1.87-3.1-4.6A46.39,46.39,0,0,1,230.68,117.12Z" fill="#285430"></path><path d="M232.93,166.27c-.44-.71-13.52.75-13.52.75s3.19,13.9,0,22.72L235.74,192S240.25,178.29,232.93,166.27Z" fill="#285430"></path><path d="M184.9,151.14s3-7.13,14.08-10.32l6.19,12s-9.28-1.16-15.95,5.44Z" fill="#285430"></path><path d="M173.92,155.79,161.35,149a27,27,0,0,0-12,21.58l16.14,7.14S170,160.48,173.92,155.79Z" fill="#285430"></path><path d="M186,177s-5.63-4.13-17.27,1.13l1.69,13.14s7.51-7.88,14.45-6.76Z" fill="#285430"></path><path d="M175,122.88c.11.58-12.76-3.95-12.76-3.95s-3-16.14,4.88-27c0,0,16.89,6.39,16.7,6.95S173.64,115.74,175,122.88Z" fill="#285430"></path><path d="M190.17,70.43s-15.59-3.32-25.73,3.41l4.32,12s16-7.1,24.4-4.68Z" fill="#285430"></path><path d="M158.81,89.57s-8.48-13.2-24.51-11.86l-3.16,11.86s14.26,3.36,22.45,10.75Z" fill="#285430"></path><path d="M164.44,60.29s-7.8-7.71-24.92-1.79V69.61s19.29-4.23,22.11,0Z" fill="#285430"></path><path d="M199.09,240.61a.39.39,0,0,1-.15,0,.5.5,0,0,1-.33-.62c.15-.49,14.56-48.84,9.88-90.47a.5.5,0,0,1,.44-.56.51.51,0,0,1,.55.45c4.71,41.84-9.77,90.38-9.91,90.87A.51.51,0,0,1,199.09,240.61Z" fill="#d1d3d4"></path><path d="M191.21,242.21a.43.43,0,0,1-.19,0,.49.49,0,0,1-.27-.65,219.09,219.09,0,0,0,7.86-23.59.5.5,0,0,1,.61-.36.5.5,0,0,1,.35.61,216,216,0,0,1-7.9,23.72A.51.51,0,0,1,191.21,242.21Z" fill="#d1d3d4"></path><path d="M206.76,118.57a.5.5,0,0,1-.5-.44c-1.62-13.39,0-31.94,0-32.12a.5.5,0,1,1,1,.09c0,.18-1.61,18.62,0,31.91a.49.49,0,0,1-.43.56Z" fill="#d1d3d4"></path><path d="M193.94,177.73a.5.5,0,0,1-.43-.25c-6.73-11.67-18.1-27.49-18.21-27.64a.5.5,0,1,1,.81-.59c.11.16,11.51,16,18.27,27.73a.5.5,0,0,1-.19.68A.45.45,0,0,1,193.94,177.73Z" fill="#d1d3d4"></path><path d="M201.69,192.89a.52.52,0,0,1-.43-.24L197.19,186a.5.5,0,0,1,.86-.51l4.07,6.68a.5.5,0,0,1-.17.68A.5.5,0,0,1,201.69,192.89Z" fill="#d1d3d4"></path><path d="M233.67,152.07a.47.47,0,0,1-.35-.14.5.5,0,0,1,0-.71,85.31,85.31,0,0,1,10.9-9.45.5.5,0,0,1,.59.81A83.31,83.31,0,0,0,234,151.92.51.51,0,0,1,233.67,152.07Z" fill="#d1d3d4"></path><path d="M237.11,62.94c-1.71,1.1-11.7,2.69-19,14.68L222.26,89s11-11.62,20.12-13Z" fill="#285430"></path><path d="M140.25,145.79s-5.57,7.33-18.06,5.21l3.57,11.31s14.59,3,20.5-10.62Z" fill="#285430"></path><path d="M131.16,111.73s-6.12.21-12.59-9.34L113.22,118s6.54,5.9,16.05.82Z" fill="#285430"></path><path d="M140.28,164.73s-4.15,4.74-10,5.3l7.54,7.38s4.13-1.74,6.73-7.94Z" fill="#285430"></path><path d="M165.43,180.29c-.57.32-14.36-1.37-17.88-7.14l-6.48,8.59s8.64,11.72,19,10.65Z" fill="#285430"></path><circle cx="129.83" cy="135.57" r="9.69" fill="#285430"></circle><path d="M130.29,140.48v1.31h-1v-1.37c-2.08-.23-3.56-1.34-3.88-3.37l2.23-.39a2.07,2.07,0,0,0,1.65,1.8v-2.23c-1.75-.43-3.67-1-3.67-2.86,0-1.66,1.45-2.77,3.67-2.85v-1.18h1v1.22a3.93,3.93,0,0,1,3.64,2.84l-2.22.49a1.92,1.92,0,0,0-1.42-1.36v1.9c1.82.4,4,1,4,3.14C134.3,139.27,132.78,140.44,130.29,140.48Zm-1-6.28v-1.75c-.84,0-1.35.37-1.35.9S128.46,134,129.25,134.2Zm2.73,3.41c0-.58-.73-.87-1.69-1.12v2.07C131.41,138.53,132,138.15,132,137.61Z" fill="#fff"></path><circle cx="143.91" cy="109.66" r="9.69" fill="#285430"></circle><path d="M144.37,114.57v1.31h-1.05v-1.37a4,4,0,0,1-3.88-3.37l2.23-.39a2.09,2.09,0,0,0,1.65,1.8v-2.23c-1.74-.43-3.66-1-3.66-2.86,0-1.66,1.45-2.77,3.66-2.85v-1.18h1.05v1.22a3.94,3.94,0,0,1,3.64,2.84l-2.22.49a2,2,0,0,0-1.42-1.36v1.9c1.81.4,4,1,4,3.14C148.37,113.36,146.86,114.53,144.37,114.57Zm-1.05-6.28v-1.75c-.83,0-1.35.37-1.35.9S142.54,108.09,143.32,108.29Zm2.74,3.41c0-.58-.73-.87-1.69-1.12v2.07C145.49,112.62,146.06,112.24,146.06,111.7Z" fill="#fff"></path><circle cx="191.79" cy="115.88" r="9.69" fill="#285430"></circle><path d="M192.25,120.79v1.32h-1v-1.37a4,4,0,0,1-3.89-3.37l2.24-.39a2.07,2.07,0,0,0,1.65,1.8v-2.24c-1.75-.43-3.67-1-3.67-2.85,0-1.67,1.45-2.78,3.67-2.86v-1.17h1v1.21a3.92,3.92,0,0,1,3.64,2.85l-2.22.48a1.92,1.92,0,0,0-1.42-1.35v1.89c1.81.41,4,1,4,3.14C196.26,119.59,194.74,120.75,192.25,120.79Zm-1-6.28v-1.74c-.84,0-1.35.36-1.35.89S190.42,114.31,191.21,114.51Zm2.73,3.42c0-.59-.73-.87-1.69-1.13v2.07C193.37,118.85,193.94,118.47,193.94,117.93Z" fill="#fff"></path><circle cx="199.65" cy="177.29" r="9.69" fill="#285430"></circle><path d="M200.12,182.21v1.31h-1.05v-1.37c-2.08-.23-3.56-1.34-3.88-3.37l2.23-.39a2.09,2.09,0,0,0,1.65,1.8V178c-1.74-.44-3.66-1-3.66-2.86,0-1.66,1.44-2.77,3.66-2.85v-1.18h1.05v1.22a3.94,3.94,0,0,1,3.64,2.84l-2.22.49a2,2,0,0,0-1.42-1.36v1.9c1.81.4,4,1,4,3.14C204.12,181,202.61,182.17,200.12,182.21Zm-1.05-6.28v-1.75c-.84,0-1.35.37-1.35.89S198.29,175.72,199.07,175.93Zm2.74,3.41c0-.58-.73-.87-1.69-1.13v2.08C201.24,180.26,201.81,179.88,201.81,179.34Z" fill="#fff"></path><circle cx="243.64" cy="103.43" r="9.69" fill="#285430"></circle><path d="M244.1,108.34v1.32h-1v-1.37a4,4,0,0,1-3.89-3.37l2.24-.39a2.07,2.07,0,0,0,1.65,1.8v-2.24c-1.75-.43-3.67-1-3.67-2.85,0-1.67,1.45-2.78,3.67-2.86V97.2h1v1.22a3.93,3.93,0,0,1,3.64,2.84l-2.22.49a1.89,1.89,0,0,0-1.42-1.35v1.89c1.81.41,4,1,4,3.14C248.11,107.14,246.59,108.3,244.1,108.34Zm-1-6.28v-1.74c-.84,0-1.35.36-1.35.89S242.27,101.86,243.06,102.06Zm2.73,3.41c0-.58-.73-.86-1.69-1.12v2.07C245.22,106.39,245.79,106,245.79,105.47Z" fill="#fff"></path><circle cx="273.84" cy="156.56" r="9.69" fill="#285430"></circle><path d="M274.3,161.47v1.32h-1v-1.37a4,4,0,0,1-3.89-3.37l2.24-.39a2.08,2.08,0,0,0,1.65,1.8v-2.24c-1.75-.43-3.67-1-3.67-2.85,0-1.67,1.45-2.78,3.67-2.86v-1.18h1v1.22a3.94,3.94,0,0,1,3.64,2.84l-2.22.49a1.89,1.89,0,0,0-1.42-1.35v1.89c1.81.41,4,1,4,3.14C278.3,160.27,276.79,161.43,274.3,161.47Zm-1-6.28v-1.74c-.84,0-1.36.36-1.36.89S272.47,155,273.26,155.19ZM276,158.6c0-.58-.73-.86-1.69-1.12v2.07C275.42,159.52,276,159.14,276,158.6Z" fill="#fff"></path><circle cx="179.18" cy="48.81" r="9.69" fill="#285430"></circle><path d="M179.64,53.73V55h-1V53.67c-2.08-.23-3.56-1.34-3.88-3.37l2.23-.39a2.08,2.08,0,0,0,1.65,1.8V49.48c-1.74-.44-3.67-1-3.67-2.86,0-1.66,1.45-2.77,3.67-2.85V42.59h1v1.22a3.92,3.92,0,0,1,3.64,2.84l-2.21.49a2,2,0,0,0-1.43-1.36v1.9c1.82.4,4,1,4,3.14C183.65,52.52,182.13,53.69,179.64,53.73Zm-1-6.28V45.7c-.84,0-1.35.37-1.35.9S177.82,47.24,178.6,47.45Zm2.74,3.41c0-.58-.73-.87-1.7-1.13v2.08C180.77,51.78,181.34,51.4,181.34,50.86Z" fill="#fff"></path><path d="M269.37,92.05s-3.39,8.13-9.49,13.34A36.29,36.29,0,0,1,276,118.07l10.79-7.49S285.61,98.37,269.37,92.05Z" fill="#285430"></path></g></svg>