<svg width="62" height="64" viewBox="0 0 62 64" xmlns="http://www.w3.org/2000/svg"><g fill="none" fill-rule="evenodd"><path d="M20.772 61.854C55.74 69.246 70.737 48.115 55.74 26.095 40.745 4.075-.247 5.591 3.779 23.336c4.025 17.746-17.977 31.127 16.993 38.518z" fill="#15C39A" opacity=".2"/><path opacity=".1" d="M-9-9h80v80H-9z"/><g stroke="#878EA6" stroke-linecap="round" stroke-width="1.6"><path d="M38.865 1l12.579 12.578v32.008a2.49 2.49 0 0 1-2.492 2.498H15.508a2.494 2.494 0 0 1-2.492-2.498V3.498A2.49 2.49 0 0 1 15.508 1h23.357z" fill="#FFF" stroke-linejoin="round"/><path fill="#FFF" stroke-linejoin="round" d="M39.488 1l11.956 12.207H39.488zM25.33 19.498c-.05 0-.1 0-.15-.002-.596-2.983-2.902-5.334-5.828-5.942a6.331 6.331 0 0 1 0-.305c2.925-.604 5.227-2.952 5.82-5.934a5.973 5.973 0 0 1 .3 0c.596 2.983 2.902 5.334 5.828 5.942a6.33 6.33 0 0 1 0 .306c-2.925.604-5.227 2.952-5.82 5.934l-.15.001zM39.587 42.26l-.109-.001c-.431-2.16-2.1-3.86-4.218-4.3a4.582 4.582 0 0 1 0-.222c2.117-.437 3.783-2.136 4.212-4.294a4.322 4.322 0 0 1 .217 0c.432 2.159 2.1 3.86 4.218 4.3a4.582 4.582 0 0 1 0 .221c-2.117.438-3.783 2.137-4.212 4.295l-.108.001z"/><path d="M31.616 20.787h12.232m-24.677 5.657H44.07m-25.464 6.222H30.47"/></g></g></svg>