<svg width="70" height="63" viewBox="0 0 70 63" xmlns="http://www.w3.org/2000/svg"><g fill="none" fill-rule="evenodd"><path opacity=".1" d="M-5-9h80v80H-5z"/><path d="M29.929 60.086c23.224-7.363 54.67-23.74 30.653-48.556C36.565-13.287 10.232 9.285 2.92 32.074c-8.987 28.012 8.69 33.82 27.009 28.012z" fill="#4A90E2" opacity=".2"/><g transform="translate(5 8)"><path d="M20.863 35.556H8.62A8.62 8.62 0 0 1 0 26.936V3.232A3.232 3.232 0 0 1 3.232 0h44.175a3.232 3.232 0 0 1 3.233 3.232v23.704a8.62 8.62 0 0 1-8.62 8.62" stroke="#878EA6" stroke-width="1.6" fill="#FFF" stroke-linecap="round"/><path d="M40.906 7.542H0v-4.31A3.232 3.232 0 0 1 3.232 0h44.175a3.232 3.232 0 0 1 3.233 3.232v4.31" stroke="#878EA6" stroke-width="1.6" stroke-linecap="round"/><g transform="translate(31.502 15.572)" stroke="#878EA6" stroke-width="1.6"><ellipse fill="#FFF" cx="10.683" cy="11.605" rx="9.867" ry="10.253"/><path d="M16.918 20.81l7.08 10.118" stroke-linecap="round"/></g><circle fill="#878EA6" cx="4.31" cy="3.771" r="1.077"/><circle fill="#878EA6" cx="8.62" cy="3.771" r="1.077"/><circle fill="#878EA6" cx="12.929" cy="3.771" r="1.077"/><path d="M6.337 16.367H31.5M6.337 22.501h14.545" stroke="#878EA6" stroke-width="1.6" stroke-linecap="round"/></g></g></svg>