<svg id="Layer_1" data-name="Layer 1" xmlns="http://www.w3.org/2000/svg" viewBox="0 0 108.81 122.88"><defs><style>.cls-1{fill-rule:evenodd;}</style></defs><title>search-files</title><path class="cls-1" d="M62.72,69.75H99.84a9,9,0,0,1,9,9V113.9a9,9,0,0,1-9,9H62.72a9,9,0,0,1-9-9V78.72a9,9,0,0,1,9-9ZM57.35,11.06,76.24,28.69H57.35V11.06ZM20,66.89A2,2,0,0,0,18.06,69,2,2,0,0,0,20,71.15h23.7V66.89Zm0,15.26a2,2,0,0,0-1.92,2.13A2,2,0,0,0,20,86.41h23.7V82.15Zm0-45.79A2,2,0,0,0,18,38.49,2,2,0,0,0,20,40.62H41.89a2,2,0,0,0,1.91-2.13,2,2,0,0,0-1.91-2.13ZM20,21.1a2,2,0,0,0-1.92,2.13A2,2,0,0,0,20,25.36H32a2,2,0,0,0,1.91-2.13A2,2,0,0,0,32,21.1Zm0,30.53A2,2,0,0,0,18,53.76,2,2,0,0,0,20,55.89H57A2.05,2.05,0,0,0,59,53.76,2,2,0,0,0,57,51.63H20Zm66.8-20.41a3.15,3.15,0,0,0-2.29-3l-27.83-27A3.09,3.09,0,0,0,54.21,0H5.66A5.63,5.63,0,0,0,0,5.65v96.78a5.63,5.63,0,0,0,1.65,4,5.71,5.71,0,0,0,4,1.65h4.81V116a7,7,0,0,0,6.92,6.92H43.74V117H17.35a1,1,0,0,1-.7-.28,1,1,0,0,1-.28-.7v-7.89H43.76v-6.31H6.32V6.29H51V31.83A3.17,3.17,0,0,0,54.21,35H80.44V60.2h6.31V42.44h7.81a1,1,0,0,1,.71.28,1,1,0,0,1,.28.7V60.21h6V43.42a6.91,6.91,0,0,0-2-4.88,6.82,6.82,0,0,0-4.88-2H86.75V31.22ZM79.47,79.86a14.47,14.47,0,0,1,10.24,4.25A14.42,14.42,0,0,1,94,94.35a14.54,14.54,0,0,1-.6,4.14A15.16,15.16,0,0,1,92,101.58l5.28,5.76a1.05,1.05,0,0,1-.06,1.48l-4,3.67a1,1,0,0,1-1.48-.07l-5-5.52a15.07,15.07,0,0,1-3,1.33h0a14.69,14.69,0,0,1-4.16.61A14.5,14.5,0,0,1,69.22,84.11a14.43,14.43,0,0,1,10.25-4.25ZM85.87,88a9.1,9.1,0,0,0-2.94-2l-.05,0a9,9,0,0,0-9.81,2,9,9,0,0,0-2.65,6.4,8.86,8.86,0,0,0,2.64,6.4,9.34,9.34,0,0,0,3,2,9.14,9.14,0,0,0,6.92,0,9.09,9.09,0,0,0,4.91-11.84l0,0A9,9,0,0,0,85.87,88Z"/></svg>