<svg xmlns="http://www.w3.org/2000/svg" width="95" height="95" viewBox="0 0 95 95"><g transform="translate(-131 -1025)"><circle cx="47.5" cy="47.5" r="47.5" transform="translate(131 1025)" fill="#fff"/><g transform="translate(115 1493)"><path d="M183.222-447.643c-.357.343-.357.343-.357,3.432v3.075H179.79c-3.089,0-3.089,0-3.432.358l-.357.343v7.751l.357.343c.343.358.343.358,3.432.358h3.075v3.075c0,3.089,0,3.089.357,3.432l.343.358h7.751l.343-.358c.358-.343.358-.343.358-3.432v-3.075h3.075c3.089,0,3.089,0,3.432-.358l.357-.343v-7.751l-.357-.343c-.343-.358-.343-.358-3.432-.358h-3.075v-3.075c0-3.089,0-3.089-.358-3.432l-.343-.357h-7.751Zm6.507,5.005c0,3.089,0,3.089.357,3.432s.343.358,3.432.358h3.075v4.576h-3.075c-4.118,0-3.79-.329-3.79,3.79v3.074h-4.576v-3.074c0-4.118.329-3.79-3.79-3.79h-3.075v-4.576h3.075c4.118,0,3.79.329,3.79-3.79v-3.074h4.576Z" transform="translate(-123.44)" fill="#31c5fe"/><path d="M32.357-287.642,32-287.3v30.631l.357.343c.343.358.371.358,3.071.358,3.7,0,3.429.3,3.429-3.79v-3.075H89.143v3.075c0,4.09-.271,3.79,3.429,3.79,2.7,0,2.729,0,3.071-.358l.357-.343v-23.767l-.357-.343c-.343-.358-.371-.358-3.029-.358-2,.014-2.743.057-2.929.2-.229.157-.329.114-.857-.372a8.213,8.213,0,0,0-2.814-1.673l-.943-.372L69.786-283.4,54.5-283.438l-.471-.915a7.262,7.262,0,0,0-4.614-3.518,8.269,8.269,0,0,0-3.871.3,7.257,7.257,0,0,0-4,3.99,5.537,5.537,0,0,0-.314,2.374,5.907,5.907,0,0,0,1.129,3.933l.486.715H38.857V-287.3l-.357-.343c-.343-.358-.371-.358-3.071-.358S32.7-288,32.357-287.642Zm4.214,15.659v13.728H34.286v-27.456h2.286Zm13.357-13.285a4.544,4.544,0,0,1,.214,8.122,3.19,3.19,0,0,1-2.143.515,3.223,3.223,0,0,1-2.114-.486,4.56,4.56,0,0,1,.686-8.366A5.049,5.049,0,0,1,49.929-285.269Zm35.814,4.662a5.493,5.493,0,0,1,2.8,2.731l.529,1.087.043,3.546.057,3.546H54.857v-11.44l14.971.029,14.957.043Zm7.971,12.055v10.3H91.429v-20.592h2.286Zm-41.143-3.432v2.288H38.857v-4.576H52.571Zm36.571,5.72v1.144H38.857v-2.288H89.143Z" transform="translate(0 -137.175)" fill="#31c5fe"/></g></g></svg>