<svg xmlns="http://www.w3.org/2000/svg" width="95" height="95" viewBox="0 0 95 95"><g transform="translate(-384 -1025)"><circle cx="47.5" cy="47.5" r="47.5" transform="translate(384 1025)" fill="#fff"/><g transform="translate(399.851 1545.874)"><path d="M130.932-504.652c-.613.375-.675.75-.675,3.914,0,3.139.075,3.552.7,3.839a22.253,22.253,0,0,0,3.614.138h3.314v3.214l-1.088.075a25.985,25.985,0,0,0-13.668,5.552,27.261,27.261,0,0,0-5.727,6.565c-1.263,2.088-2.4,4.727-2.4,5.5a1.218,1.218,0,0,0,2.088.813,6.284,6.284,0,0,0,.6-1.213,23.055,23.055,0,0,1,9.216-11.292,23.006,23.006,0,0,1,26.424,1.351,30.008,30.008,0,0,1,4.6,4.815,29.827,29.827,0,0,1,2.951,5.765,23.92,23.92,0,0,1,1.213,8.429,22.989,22.989,0,0,1-11.217,18.8,23.143,23.143,0,0,1-13.406,3.151,22.853,22.853,0,0,1-12.693-4.965,1.379,1.379,0,0,0-1.863-.113.916.916,0,0,0-.35.888c0,.55.05.625.563,1.088a26.281,26.281,0,0,0,4.815,3.039,25.312,25.312,0,0,0,7.566,2.388,31.01,31.01,0,0,0,7.3,0,25.659,25.659,0,0,0,15.719-8.679,25.486,25.486,0,0,0,5.352-22.672,26.362,26.362,0,0,0-5.04-10.029,6.494,6.494,0,0,1-.7-.925,7.224,7.224,0,0,1,.938-1.038l.925-.925.738.7a3.312,3.312,0,0,0,1.113.775,1.274,1.274,0,0,0,1.451-1.488c-.05-.275-.625-.938-2.026-2.364-1.075-1.088-2.176-2.138-2.439-2.339a1.225,1.225,0,0,0-1.688-.038.9.9,0,0,0-.388.888c0,.513.063.625.75,1.338l.738.775-.988.988-1,.988-.463-.438a26.187,26.187,0,0,0-8.1-4.74,28.372,28.372,0,0,0-6.815-1.413l-.438-.025-.038-1.6-.038-1.588h6.916l.363-.363.363-.363v-6.528l-.363-.4-.363-.413-7.991-.038C131.632-504.889,131.307-504.877,130.932-504.652Zm14.581,3.827v1.563H132.758v-1.476a7.583,7.583,0,0,1,.088-1.563c.038-.05,2.914-.088,6.378-.088h6.29Z" transform="translate(-100.488 0)" fill="#31c5fe"/><path d="M285.2-298.061l-3.952,3.952-.75-.35a4.648,4.648,0,0,0-3.451-.075,4.316,4.316,0,0,0-2.176,5.627,4.7,4.7,0,0,0,2.176,2.2,4.7,4.7,0,0,0,3.4-.05,3.954,3.954,0,0,0,2.013-1.888c.413-.763.425-.825.425-2.188v-1.413l3.964-3.964a40.959,40.959,0,0,0,4.052-4.327A1.232,1.232,0,0,0,289.611-302C289.16-302,288.973-301.825,285.2-298.061Zm-5.778,5.865a1.685,1.685,0,0,1,1,1.438,1.707,1.707,0,0,1-3.264.85A1.721,1.721,0,0,1,279.419-292.2Z" transform="translate(-240.046 -177.503)" fill="#31c5fe"/><path d="M79.733-248.825a1.143,1.143,0,0,0-.213,1.9l.425.425h6.14c6.565,0,6.69-.013,7.016-.613a1.352,1.352,0,0,0-.238-1.526L92.5-249h-6.24C81.334-248.988,79.971-248.962,79.733-248.825Z" transform="translate(-69.085 -223.875)" fill="#31c5fe"/><path d="M49.084-175.627a1.212,1.212,0,0,0-.675.6,1.1,1.1,0,0,0,.238,1.438l.3.3h16.62l.325-.388a1.157,1.157,0,0,0-.063-1.688l-.375-.363-7.966-.025A79.477,79.477,0,0,0,49.084-175.627Z" transform="translate(-42.075 -287.957)" fill="#31c5fe"/><path d="M1.044-99.81a1.383,1.383,0,0,0-.613.45.912.912,0,0,0-.263.888,1.228,1.228,0,0,0,.4.788l.325.288H23.416l.363-.363a1.213,1.213,0,0,0-.475-2.026C23-99.9,1.631-99.923,1.044-99.81Z" transform="translate(0 -354.344)" fill="#31c5fe"/></g></g></svg>