<svg xmlns="http://www.w3.org/2000/svg" width="95" height="95" viewBox="0 0 95 95"><g transform="translate(-719 -1023)"><circle cx="47.5" cy="47.5" r="47.5" transform="translate(719 1023)" fill="#fff"/><g transform="translate(705.9 1521.917)"><path d="M267.909-479.738a14.215,14.215,0,0,0-10.376,7.707,14.038,14.038,0,0,0,2.695,16.156,14.061,14.061,0,0,0,19.38.529,14.735,14.735,0,0,0,4.672-10.2c0-.541-.063-.73-.315-.97-.428-.441-.919-.4-1.587.113a10.092,10.092,0,0,1-2.821,1.486,8.507,8.507,0,0,1-4.7-.05,12.432,12.432,0,0,1-1.637-.756,12.071,12.071,0,0,1-3.148-3.148,7.975,7.975,0,0,1,.592-9.029c.6-.806.655-1.259.2-1.713-.264-.277-.415-.315-1.1-.3C269.332-479.9,268.5-479.826,267.909-479.738Zm-.076,3.312a9.21,9.21,0,0,0-.642,4.231,9.742,9.742,0,0,0,9.356,9.356,9.131,9.131,0,0,0,4.244-.655l1.108-.416-.088.4a12.156,12.156,0,0,1-8.752,9.419,14.249,14.249,0,0,1-5.793,0,12.1,12.1,0,0,1-9.142-12.3,11.784,11.784,0,0,1,8.777-10.817,11.472,11.472,0,0,1,1.209-.315C268.186-477.534,268.073-477.069,267.833-476.426Z" transform="translate(-195.777 0)" fill="#31c5fe"/><path d="M143.278-439.839a23.113,23.113,0,0,0-3.4.743,15.015,15.015,0,0,0-3.576,1.675.989.989,0,0,0,.655,1.65,4.4,4.4,0,0,0,1.259-.453,14.771,14.771,0,0,1,6.019-1.65c1.121-.063,1.335-.113,1.587-.365a.941.941,0,0,0-.025-1.373c-.264-.277-.4-.315-1.221-.3C144.072-439.9,143.492-439.864,143.278-439.839Z" transform="translate(-90.854 -34.963)" fill="#31c5fe"/><path d="M53.607-375.724c-.781.781-2.015,4.143-2.317,6.322a1.564,1.564,0,0,1-.151.6,8.211,8.211,0,0,1-.907-.567,3.056,3.056,0,0,0-1.2-.567,1.053,1.053,0,0,0-.856,1.5A19.426,19.426,0,0,0,52.1-365.9a19.426,19.426,0,0,0,3.916-2.531,1.053,1.053,0,0,0-.856-1.5,2.825,2.825,0,0,0-1.108.5,4.193,4.193,0,0,1-.781.453,15.481,15.481,0,0,1,.756-3.1,18.233,18.233,0,0,1,.768-1.725,4.315,4.315,0,0,0,.453-1.272A.992.992,0,0,0,53.607-375.724Z" transform="translate(-13.964 -90.855)" fill="#31c5fe"/><path d="M47.564-287.761c-.29.227-.3.34-.365,2.04l-.063,1.8-.982.164a12.05,12.05,0,0,0-4.961,2.065,4.784,4.784,0,0,1-.756.491,11.13,11.13,0,0,1-1.234-1.133c-1.373-1.36-1.725-1.5-2.342-.894s-.466.97.894,2.342a11.131,11.131,0,0,1,1.133,1.234,4.787,4.787,0,0,1-.491.756,12.051,12.051,0,0,0-2.065,4.961l-.164.982-1.8.063c-1.7.063-1.813.076-2.04.365a1.023,1.023,0,0,0,0,1.284c.227.29.34.3,2.04.365l1.8.063.164.982a12.05,12.05,0,0,0,2.065,4.961,4.786,4.786,0,0,1,.491.756,11.135,11.135,0,0,1-1.133,1.234c-1.36,1.373-1.5,1.725-.894,2.342s.97.466,2.342-.894a11.132,11.132,0,0,1,1.234-1.133,4.786,4.786,0,0,1,.756.491,12.05,12.05,0,0,0,4.961,2.065l.982.164.063,1.8c.063,1.7.076,1.813.365,2.04a1.023,1.023,0,0,0,1.284,0c.29-.227.3-.34.365-2.04l.063-1.8.982-.164a12.05,12.05,0,0,0,4.961-2.065,4.787,4.787,0,0,1,.756-.491,11.131,11.131,0,0,1,1.234,1.133c1.373,1.36,1.725,1.5,2.342.894s.466-.97-.894-2.342a11.134,11.134,0,0,1-1.133-1.234,4.786,4.786,0,0,1,.491-.756,12.05,12.05,0,0,0,2.065-4.961l.164-.982,1.8-.063c1.7-.063,1.813-.076,2.04-.365a1.258,1.258,0,0,0,.239-.642,1.258,1.258,0,0,0-.239-.642c-.227-.29-.34-.3-2.04-.365l-1.8-.063-.164-.982a12.051,12.051,0,0,0-2.065-4.961,4.787,4.787,0,0,1-.491-.756,11.13,11.13,0,0,1,1.133-1.234c1.36-1.373,1.5-1.725.894-2.342s-.97-.466-2.342.894a11.129,11.129,0,0,1-1.234,1.133,4.785,4.785,0,0,1-.756-.491,12.05,12.05,0,0,0-4.961-2.065l-.982-.164-.063-1.8c-.063-1.7-.076-1.813-.365-2.04a1.258,1.258,0,0,0-.642-.239A1.258,1.258,0,0,0,47.564-287.761Zm2.758,6.044a10.075,10.075,0,0,1,6.951,5.478,10.057,10.057,0,0,1-5.767,13.852,10.048,10.048,0,0,1-12.379-5.163,11.217,11.217,0,0,1-.756-2.216A10.068,10.068,0,0,1,50.322-281.716Z" transform="translate(0 -167.749)" fill="#31c5fe"/><path d="M311.043-214.816a12.689,12.689,0,0,0-1.864,1.4,1.064,1.064,0,0,0,.894,1.448,2.824,2.824,0,0,0,1.108-.5,5.307,5.307,0,0,1,.781-.466,9.178,9.178,0,0,1-.164.97,15.116,15.116,0,0,1-13.9,12.051c-1.133.063-1.347.113-1.6.365a.95.95,0,0,0,.038,1.4c.327.315.353.327,1.612.252a17.119,17.119,0,0,0,15.879-13.94c.126-.655.239-1.209.264-1.234a5.388,5.388,0,0,1,.894.529,2.98,2.98,0,0,0,1.209.579,1.053,1.053,0,0,0,.856-1.5A19.426,19.426,0,0,0,313.134-216,9.464,9.464,0,0,0,311.043-214.816Z" transform="translate(-230.676 -230.683)" fill="#31c5fe"/></g></g></svg>