<?xml version="1.0" encoding="iso-8859-1"?>
<!-- Generator: Adobe Illustrator 18.0.0, SVG Export Plug-In . SVG Version: 6.00 Build 0)  -->
<!DOCTYPE svg PUBLIC "-//W3C//DTD SVG 1.1//EN" "http://www.w3.org/Graphics/SVG/1.1/DTD/svg11.dtd">
<svg version="1.1" id="Capa_1" xmlns="http://www.w3.org/2000/svg" xmlns:xlink="http://www.w3.org/1999/xlink" x="0px" y="0px"
	 viewBox="0 0 167.138 167.138" style="enable-background:new 0 0 167.138 167.138;" xml:space="preserve">
<path d="M152.395,14.758C142.878,5.241,130.227,0,116.773,0c-13.454,0-26.105,5.241-35.622,14.758L14.772,81.137
	c-9.517,9.517-14.758,22.168-14.758,35.624c0,13.456,5.241,26.106,14.757,35.618c9.514,9.517,22.164,14.759,35.62,14.759
	c13.456,0,26.107-5.241,35.625-14.758l66.379-66.379C172.032,66.363,172.033,34.403,152.395,14.758z M75.409,141.773
	c-6.684,6.684-15.568,10.364-25.018,10.364c-9.448,0-18.331-3.681-25.014-10.365c-6.683-6.681-10.363-15.563-10.363-25.012
	c0-9.449,3.681-18.334,10.364-25.018l27.886-27.886l50.03,50.03L75.409,141.773z M141.787,75.395l-27.886,27.886l-50.03-50.03
	l27.887-27.886C98.442,18.681,107.325,15,116.773,15c9.447,0,18.331,3.681,25.014,10.363
	C155.578,39.16,155.578,61.604,141.787,75.395z"/>
<g>
</g>
<g>
</g>
<g>
</g>
<g>
</g>
<g>
</g>
<g>
</g>
<g>
</g>
<g>
</g>
<g>
</g>
<g>
</g>
<g>
</g>
<g>
</g>
<g>
</g>
<g>
</g>
<g>
</g>
</svg>
