<?xml version='1.0' encoding='utf-8'?>
<!DOCTYPE svg PUBLIC '-//W3C//DTD SVG 1.1//EN' 'http://www.w3.org/Graphics/SVG/1.1/DTD/svg11.dtd'>
<svg version="1.1" xmlns="http://www.w3.org/2000/svg" viewBox="0 0 512 512" xmlns:xlink="http://www.w3.org/1999/xlink" enable-background="new 0 0 512 512">
  <g>
    <path d="m495,93.5l-76.2-76.5c-8-8-20.9-8-28.9,0-8,8-8,20.9 0,28.9l23.7,23.8-48.7,48.7-44-44.1c-8-8-20.9-8-28.9,0-8,8-8,20.9 0,28.9l11,11-199.4,199.3c-21.2,21.2-25.2,53-12.2,78.4l-74.4,74.3c-8,8-8,20.9 0,28.9 4,4 17.9,11 28.9,0l74.3-74.3c9.4,4.9 47,19.2 78.3-12.1l199.4-199.3 11,11c11.8,11.8 24.9,4 28.9,0 8-8 8-20.9 0-28.9l-44-44.2 48.7-48.7 23.7,23.7c11.4,11.4 24.9,4 28.9,0 7.9-7.9 7.9-20.8-0.1-28.8zm-325.4,286.3c-9.9,9.9-27.2,10-37.2-0.1-10.3-10.3-10.2-27 0-37.3l68.3-68.3 37.2,37.3-68.3,68.4zm97.2-97.2l-37.2-37.3 102.2-102.2 37.2,37.3-102.2,102.2z"/>
  </g>
</svg>
