<svg xmlns="http://www.w3.org/2000/svg" viewBox="0 0 400 300" width="406" height="306" class="illustration styles_illustrationTablet__1DWOa"><g id="_56_watering_plant" data-name="#56_watering_plant"><path d="M135.53,220c-.18-.15,1.9-4,6.64-3.55s5.28,2.69,5.28,2.69S142.87,226,135.53,220Z" fill="#231f20"></path><path d="M132.43,236l-.12,0a.51.51,0,0,1-.37-.59c0-.12.05-.51.08-1.12.26-4.13,1-16.71,4.71-24.74a.51.51,0,0,1,.66-.25.5.5,0,0,1,.25.67c-3.6,7.86-4.37,20.29-4.62,24.38a10.74,10.74,0,0,1-.1,1.29A.51.51,0,0,1,132.43,236Z" fill="#231f20"></path><path d="M111.26,230.91h0a.49.49,0,0,1-.45-.54c0-.36,3-36.26-.93-48.1a.51.51,0,0,1,.32-.63.49.49,0,0,1,.63.32c4,12,1.1,47,1,48.49A.5.5,0,0,1,111.26,230.91Z" fill="#231f20"></path><path d="M112.33,209.34c.18-.15-1.89-4-6.63-3.55s-5.29,2.68-5.29,2.68S105,215.34,112.33,209.34Z" fill="#231f20"></path><path d="M86.49,216.12c.18-.15-1.9-4-6.64-3.55s-5.29,2.68-5.29,2.68S79.15,222.12,86.49,216.12Z" fill="#231f20"></path><path d="M112.34,203.38s1-2.6,5.15-4.34a7.23,7.23,0,0,1,7,.48S120.45,206.78,112.34,203.38Z" fill="#231f20"></path><path d="M87.68,218.81s1-2.61,5.15-4.34a7.22,7.22,0,0,1,7,.47S95.79,222.2,87.68,218.81Z" fill="#231f20"></path><path d="M89.21,230.91a.5.5,0,0,1-.48-.35c-3.31-11-2.13-28.73-2.12-28.91a.5.5,0,0,1,1,.07c0,.18-1.18,17.72,2.07,28.55a.5.5,0,0,1-.33.62A.36.36,0,0,1,89.21,230.91Z" fill="#231f20"></path><path d="M89.4,184.78c0,1.32-.61,3-1.35,3s-1.35-1.66-1.35-3,.6-1.79,1.35-1.79S89.4,183.46,89.4,184.78Z" fill="#231f20"></path><path d="M89.4,205.63c0-1.32-.61-3-1.35-3s-1.35,1.67-1.35,3,.6,1.78,1.35,1.78S89.4,206.94,89.4,205.63Z" fill="#231f20"></path><path d="M93.76,186.38c-.57,1.19-1.83,2.43-2.51,2.11s-.5-2.09.07-3.28,1.31-1.35,2-1S94.33,185.19,93.76,186.38Z" fill="#231f20"></path><path d="M84.78,205.19c.56-1.19.74-2.95.06-3.28s-1.94.93-2.5,2.12-.23,1.87.45,2.19S84.21,206.38,84.78,205.19Z" fill="#231f20"></path><path d="M97,189.7c-1,.83-2.71,1.41-3.18.83s.45-2.1,1.47-2.93,1.77-.66,2.24-.07S98,188.87,97,189.7Z" fill="#231f20"></path><path d="M80.79,202.81c1-.83,1.94-2.35,1.47-2.93s-2.14,0-3.17.82-1,1.6-.54,2.18S79.77,203.64,80.79,202.81Z" fill="#231f20"></path><path d="M98.5,194.1c-1.28.3-3,.1-3.22-.63s1.31-1.7,2.59-2,1.88.17,2,.9S99.78,193.79,98.5,194.1Z" fill="#231f20"></path><path d="M78.22,198.94c1.28-.31,2.77-1.28,2.59-2s-1.93-.93-3.22-.62-1.59,1-1.42,1.73S76.94,199.24,78.22,198.94Z" fill="#231f20"></path><path d="M98,198.71c-1.29-.28-2.8-1.22-2.64-2s1.92-1,3.2-.7,1.62,1,1.47,1.7S99.25,199,98,198.71Z" fill="#231f20"></path><path d="M77.57,194.34c1.29.28,3.05,0,3.21-.7s-1.35-1.67-2.64-1.94-1.87.21-2,.94S76.28,194.06,77.57,194.34Z" fill="#231f20"></path><path d="M95.48,202.64c-1-.81-2-2.31-1.54-2.9s2.15-.05,3.19.75,1.05,1.57.59,2.17S96.52,203.44,95.48,202.64Z" fill="#231f20"></path><path d="M79,189.91c1.05.8,2.74,1.34,3.2.75s-.5-2.09-1.54-2.89-1.79-.61-2.24,0S77.92,189.11,79,189.91Z" fill="#231f20"></path><path d="M91.55,205.11c-.59-1.17-.81-2.94-.14-3.27s2,.88,2.55,2,.27,1.87-.4,2.21S92.15,206.29,91.55,205.11Z" fill="#231f20"></path><path d="M82.13,186.51c.6,1.18,1.89,2.39,2.56,2.06s.45-2.1-.15-3.28-1.34-1.32-2-1S81.54,185.34,82.13,186.51Z" fill="#231f20"></path><circle cx="88.05" cy="195.46" r="8.59" fill="#231f20"></circle><path d="M88.05,204.55a9.09,9.09,0,1,1,9.08-9.09A9.1,9.1,0,0,1,88.05,204.55Zm0-17.18a8.09,8.09,0,1,0,8.09,8.09A8.1,8.1,0,0,0,88.05,187.37Z" fill="#fff"></path><path d="M112.59,172.26c.16,1.46-.31,3.4-1.15,3.49s-1.71-1.7-1.86-3.17.45-2.06,1.29-2.15S112.43,170.79,112.59,172.26Z" fill="#231f20"></path><path d="M115.11,195.49c-.16-1.46-1-3.25-1.87-3.16s-1.3,2-1.14,3.49.89,1.92,1.72,1.83S115.27,197,115.11,195.49Z" fill="#231f20"></path><path d="M117.64,173.51c-.49,1.4-1.75,2.94-2.54,2.66s-.81-2.27-.32-3.66,1.31-1.67,2.1-1.39S118.13,172.12,117.64,173.51Z" fill="#231f20"></path><path d="M109.91,195.57c.48-1.39.46-3.39-.33-3.66s-2,1.26-2.54,2.66,0,2.11.77,2.39S109.42,197,109.91,195.57Z" fill="#231f20"></path><path d="M121.66,176.82c-1,1.05-2.84,1.9-3.44,1.31s.25-2.4,1.29-3.45,1.9-.94,2.49-.35S122.7,175.78,121.66,176.82Z" fill="#231f20"></path><path d="M105.17,193.39c1-1,1.89-2.85,1.29-3.44s-2.39.26-3.44,1.3-.93,1.9-.33,2.49S104.13,194.44,105.17,193.39Z" fill="#231f20"></path><path d="M123.86,181.54c-1.39.5-3.38.49-3.66-.3s1.25-2.06,2.64-2.55,2.12,0,2.4.75S125.25,181.05,123.86,181.54Z" fill="#231f20"></path><path d="M101.84,189.39c1.4-.49,2.93-1.76,2.65-2.55s-2.27-.8-3.66-.31-1.66,1.32-1.38,2.11S100.45,189.89,101.84,189.39Z" fill="#231f20"></path><path d="M123.81,186.75c-1.47-.15-3.26-1-3.17-1.85s2-1.32,3.49-1.17,1.92.88,1.83,1.72S125.28,186.9,123.81,186.75Z" fill="#231f20"></path><path d="M100.56,184.34c1.47.16,3.4-.33,3.49-1.16s-1.71-1.7-3.18-1.85-2.06.47-2.14,1.3S99.09,184.19,100.56,184.34Z" fill="#231f20"></path><path d="M121.53,191.43c-1.26-.77-2.51-2.33-2.07-3s2.39-.32,3.65.45,1.35,1.62.92,2.34S122.79,192.2,121.53,191.43Z" fill="#231f20"></path><path d="M101.58,179.24c1.26.77,3.21,1.17,3.65.45s-.81-2.27-2.07-3-2.06-.46-2.5.25S100.32,178.47,101.58,179.24Z" fill="#231f20"></path><path d="M117.45,194.66c-.81-1.24-1.26-3.18-.56-3.63s2.29.74,3.1,2,.52,2.05-.18,2.5S118.25,195.9,117.45,194.66Z" fill="#231f20"></path><path d="M104.7,175.07c.8,1.24,2.39,2.44,3.1,2s.25-2.4-.56-3.64-1.66-1.3-2.36-.85S103.89,173.83,104.7,175.07Z" fill="#231f20"></path><circle cx="112.38" cy="184.33" r="9.63" fill="#231f20"></circle><path d="M112.37,194.46a10.13,10.13,0,1,1,10.07-11.22h0a10.14,10.14,0,0,1-9,11.16A10.28,10.28,0,0,1,112.37,194.46Zm0-19.26c-.33,0-.66,0-1,.05a9.13,9.13,0,1,0,10.06,8.09h0A9.13,9.13,0,0,0,112.38,175.2Z" fill="#fff"></path><path d="M139.28,187.52c.16,1.47-.31,3.41-1.15,3.5s-1.71-1.7-1.86-3.17.45-2.06,1.29-2.15S139.12,186.05,139.28,187.52Z" fill="#231f20"></path><path d="M141.8,210.76c-.16-1.47-1-3.25-1.87-3.16s-1.3,2-1.14,3.49.89,1.92,1.72,1.83S142,212.23,141.8,210.76Z" fill="#231f20"></path><path d="M144.33,188.78c-.49,1.39-1.75,2.94-2.54,2.66s-.81-2.27-.32-3.66,1.31-1.67,2.1-1.39S144.82,187.39,144.33,188.78Z" fill="#231f20"></path><path d="M136.6,210.84c.48-1.4.46-3.39-.33-3.66s-2.05,1.26-2.54,2.65,0,2.12.77,2.39S136.11,212.23,136.6,210.84Z" fill="#231f20"></path><path d="M148.35,192.09c-1,1-2.84,1.9-3.44,1.31s.25-2.4,1.29-3.45,1.9-.94,2.49-.35S149.39,191,148.35,192.09Z" fill="#231f20"></path><path d="M131.86,208.66c1-1,1.89-2.85,1.29-3.44s-2.39.26-3.44,1.3-.93,1.9-.33,2.49S130.82,209.71,131.86,208.66Z" fill="#231f20"></path><path d="M150.55,196.81c-1.39.5-3.38.49-3.66-.3s1.25-2.06,2.64-2.56,2.12,0,2.4.76S151.94,196.31,150.55,196.81Z" fill="#231f20"></path><path d="M128.53,204.66c1.4-.5,2.93-1.76,2.65-2.55s-2.27-.8-3.67-.31-1.65,1.31-1.37,2.1S127.14,205.16,128.53,204.66Z" fill="#231f20"></path><path d="M150.5,202c-1.47-.15-3.26-1-3.17-1.86s2-1.31,3.49-1.16,1.92.88,1.83,1.71S152,202.17,150.5,202Z" fill="#231f20"></path><path d="M127.25,199.61c1.47.16,3.4-.33,3.49-1.16s-1.71-1.7-3.18-1.85-2.06.47-2.14,1.3S125.78,199.46,127.25,199.61Z" fill="#231f20"></path><path d="M148.22,206.7c-1.26-.78-2.51-2.33-2.07-3s2.39-.31,3.65.46,1.35,1.62.91,2.33S149.48,207.47,148.22,206.7Z" fill="#231f20"></path><path d="M128.27,194.51c1.26.77,3.21,1.16,3.65.45s-.81-2.27-2.07-3-2.06-.47-2.5.25S127,193.74,128.27,194.51Z" fill="#231f20"></path><path d="M144.14,209.93c-.81-1.24-1.26-3.18-.56-3.63s2.29.74,3.1,2,.52,2-.18,2.5S144.94,211.17,144.14,209.93Z" fill="#231f20"></path><path d="M131.39,190.34c.8,1.24,2.39,2.43,3.1,2s.25-2.4-.56-3.64-1.66-1.3-2.36-.85S130.58,189.1,131.39,190.34Z" fill="#231f20"></path><circle cx="139.06" cy="199.6" r="9.63" fill="#231f20"></circle><path d="M139.06,209.72a10.12,10.12,0,1,1,6.35-18,10,10,0,0,1,3.72,6.79h0a10,10,0,0,1-10.07,11.22Zm0-19.25a8.48,8.48,0,0,0-1,.05,9.13,9.13,0,1,0,10.06,8.09h0a9.11,9.11,0,0,0-9.06-8.14Z" fill="#fff"></path><path d="M231.74,121.11c-.37-.63,5.39-2.39,3.92-3.82s-9.73-5.15-5.58-6.07,8.48,5.31,10.16,6.23,34.51,15.93,34.51,15.93l9.82,9.88s-12.81,9.52-17.21,8.42S234.74,126.24,231.74,121.11Z" fill="#fff"></path><path d="M268.12,152.27a3.49,3.49,0,0,1-.88-.1c-4.51-1.13-32.72-25.31-35.94-30.81h0a.69.69,0,0,1-.06-.49c.12-.42.63-.71,1.75-1.32.82-.45,2.35-1.27,2.41-1.75,0,0,0,0-.09-.15a18.6,18.6,0,0,0-2.32-1.56c-2.88-1.77-4.75-3-4.55-4.21.14-.84,1.19-1.07,1.53-1.14,3.26-.73,6.52,2.5,8.67,4.63a12.45,12.45,0,0,0,1.84,1.64c1.64.9,34.15,15.76,34.48,15.91l.15.1,9.82,9.89a.51.51,0,0,1,.14.39.47.47,0,0,1-.2.36C284.37,144,273.23,152.27,268.12,152.27Zm-35.8-31.17c3.69,5.63,31,29.06,35.17,30.1,3.27.82,12.47-5.2,16.32-8l-9.35-9.41c-2.22-1-32.81-15-34.46-15.9a11.67,11.67,0,0,1-2.06-1.81c-2-2-5-5-7.75-4.37-.6.14-.76.3-.76.34-.11.62,2.83,2.42,4.08,3.19a17.89,17.89,0,0,1,2.5,1.69,1.13,1.13,0,0,1,.38,1c-.12.91-1.29,1.6-2.92,2.49A11,11,0,0,0,232.32,121.1Zm-.15-.24Z" fill="#231f20"></path><path d="M216.91,128.4s-.12-11.4,11.64-13.35,19.53,24.36,17.23,33S235,160.19,235,160.19l-1.74-3.87s10.14-3.51,7.79-14.47c-2.69-12.62-4.81-21.32-11.61-21.6s-8.69,4-9.88,14.09" fill="#fff"></path><path d="M235,160.69a.49.49,0,0,1-.46-.3l-1.74-3.87a.47.47,0,0,1,0-.4.46.46,0,0,1,.29-.27c.4-.14,9.7-3.51,7.47-13.9-2.78-13-4.92-20.95-11.14-21.2-6-.27-8.08,2.82-9.36,13.65a.5.5,0,0,1-1-.11c1.18-9.88,3.09-14.83,10.4-14.54s9.59,10.36,12.08,22c2.1,9.81-5.54,13.93-7.62,14.84l1.32,2.94c1.74-.84,8.13-4.38,10-11.57,1.7-6.42-2.19-21.83-8.51-28.78-2.61-2.87-5.35-4.09-8.16-3.62-11.18,1.85-11.23,12.39-11.22,12.84a.51.51,0,0,1-.5.51h0a.5.5,0,0,1-.5-.5c0-.12,0-11.84,12.06-13.84,3.16-.52,6.21.8,9.06,3.94,6.63,7.29,10.54,22.91,8.73,29.7-2.34,8.81-10.7,12.3-11.06,12.45A.58.58,0,0,1,235,160.69Z" fill="#231f20"></path><path d="M243.68,163.56,195.3,185.32l-6.69-22.74c-3.15-10.72-10.09-24.92-8.3-36.16a15.72,15.72,0,0,1,3.13-7.6,9.09,9.09,0,0,1,7.21-3.5,5.31,5.31,0,0,1,3.22,1.15c1.12,1,1.64,2.47,2.65,3.56,1.76,1.92,4.77,2.23,7.25,1.45a87.26,87.26,0,0,0,10.65-4.72c9.44,15.75,19.5,31.19,29.25,46.77Z" fill="#fff"></path><path d="M195.3,185.82a.46.46,0,0,1-.21,0,.49.49,0,0,1-.27-.31l-6.69-22.74c-.78-2.66-1.79-5.52-2.87-8.55-3.19-9-6.81-19.27-5.44-27.83a16.11,16.11,0,0,1,3.23-7.84,9.53,9.53,0,0,1,7.63-3.68,5.75,5.75,0,0,1,3.51,1.27,8.42,8.42,0,0,1,1.61,2.08,10.31,10.31,0,0,0,1.08,1.52c1.69,1.84,4.6,2,6.74,1.31a74.53,74.53,0,0,0,9.5-4.16l1.08-.53a.5.5,0,0,1,.65.19c6.34,10.58,13.07,21.19,19.58,31.46q4.84,7.65,9.66,15.3a.55.55,0,0,1,.06.43.51.51,0,0,1-.26.33L195.5,185.77A.46.46,0,0,1,195.3,185.82Zm-5-70a8.76,8.76,0,0,0-6.52,3.32,15.26,15.26,0,0,0-3,7.37c-1.32,8.31,2.25,18.42,5.41,27.33,1.07,3,2.09,5.92,2.88,8.61l6.52,22.18L243,163.34q-4.65-7.43-9.38-14.85c-6.43-10.14-13.08-20.62-19.35-31.08l-.67.33a75.58,75.58,0,0,1-9.64,4.21c-3,.94-6,.32-7.77-1.58a11.24,11.24,0,0,1-1.2-1.68,7.73,7.73,0,0,0-1.41-1.84,4.87,4.87,0,0,0-2.91-1Z" fill="#231f20"></path><path d="M200,173.29l-39.58-20s-7.65,4.85-8.18,3.89,10.08-19.64,10.93-16c.15.63.65,6.56.65,6.56l34.09,12.72" fill="#fff"></path><path d="M200,173.79a.46.46,0,0,1-.23-.06l-39.32-19.84c-2.22,1.4-6.94,4.22-8.18,3.92a.73.73,0,0,1-.47-.35c-.66-1.18,5.13-10.82,7.52-14.08,2.18-3,3-3.25,3.59-3.15a1,1,0,0,1,.74.83c.14.59.53,5,.64,6.33L198.1,160a.5.5,0,0,1,.29.64.5.5,0,0,1-.64.3l-34.08-12.72a.5.5,0,0,1-.33-.42c-.2-2.37-.54-6.06-.64-6.5,0,0,0,0,0-.06-1.72.44-9.19,13-9.89,15.59,1.11-.23,4.52-2.11,7.38-3.92a.48.48,0,0,1,.49,0l39.58,20a.5.5,0,0,1-.22.95Zm-37.36-32.62Z" fill="#231f20"></path><path d="M321.67,233.05l21.8-4.77v6.47s9-6.59,8.79-17.33l-32.11,3.17Z" fill="#fff"></path><path d="M343.47,235.25a.46.46,0,0,1-.22-.06.49.49,0,0,1-.28-.44V228.9l-21.19,4.64a.53.53,0,0,1-.4-.08.49.49,0,0,1-.2-.34l-1.52-12.47a.49.49,0,0,1,.1-.37.53.53,0,0,1,.34-.19l32.11-3.17a.53.53,0,0,1,.38.12.56.56,0,0,1,.17.37c.24,10.87-8.9,17.67-9,17.74A.47.47,0,0,1,343.47,235.25Zm0-7.47a.54.54,0,0,1,.32.11.52.52,0,0,1,.18.39v5.41c2.12-1.86,7.73-7.54,7.79-15.72L320.71,221l1.39,11.41,21.27-4.66Z" fill="#231f20"></path><path d="M332.33,175.3c-.16.39-31.1,46.61-31.1,46.61l21.61-2.66-1.47,17.39s-54.32,7.29-55,0,17.21-60.23,17.21-60.23Z" fill="#231f20"></path><path d="M281.1,240.37c-6.82,0-12.35-.56-14.34-2.14a2.24,2.24,0,0,1-.93-1.54c-.72-7.31,16.5-58.28,17.24-60.44a.5.5,0,0,1,.46-.34l48.79-1.11a.54.54,0,0,1,.42.22.47.47,0,0,1,.05.47c-.16.39-20.93,31.44-30.54,45.8l20.53-2.54a.53.53,0,0,1,.4.14.46.46,0,0,1,.15.4l-1.46,17.39a.5.5,0,0,1-.43.45C320.07,237.32,297.05,240.37,281.1,240.37Zm2.8-63.47c-1.52,4.49-17.75,52.89-17.08,59.69a1.25,1.25,0,0,0,.56.86c6,4.77,48.93-.65,53.53-1.25l1.38-16.38-21,2.59a.51.51,0,0,1-.48-.24.49.49,0,0,1,0-.53c9.69-14.49,27.41-41,30.59-45.82Z" fill="#231f20"></path><path d="M276.17,203.14s18.72,36.49,16.76,37.22-37.1,0-37.1,0a38.06,38.06,0,0,1,11-6.34c5.85-2,9.35-1.47,9.35-1.47L252.9,203.14" fill="#fff"></path><path d="M282.06,241.19c-10.16,0-23.93-.28-26.24-.33a.48.48,0,0,1-.46-.33.5.5,0,0,1,.15-.55,38,38,0,0,1,11.15-6.44A26.94,26.94,0,0,1,275,232h.06l-22.58-28.55a.5.5,0,0,1,.08-.7.49.49,0,0,1,.7.08l23.27,29.41a.5.5,0,0,1-.46.81s-3.47-.45-9.13,1.44a36.35,36.35,0,0,0-9.74,5.4c13.64.27,33,.49,35.36.05,0-2.63-10.24-23.66-16.87-36.57a.52.52,0,0,1,.22-.68.5.5,0,0,1,.67.22c3,5.83,17.86,35,16.9,37.51a.7.7,0,0,1-.4.41C292.39,241.1,287.8,241.19,282.06,241.19Z" fill="#231f20"></path><path d="M215.16,72c.35,1.65.88,3.28,1.29,4.92a33,33,0,0,1,.81,11.15c-.26,2.66-.85,5.35-.42,8s2.21,5.34,5,6a6.16,6.16,0,0,1,.46-5.16,7.72,7.72,0,0,0,4.36,5.43,19.92,19.92,0,0,0,7.26,1.78c9.46.89,19.68-.81,26.7-6.76,3-2.54,6.93-3.93,9.46-6.55,3.23-3.35,5.1-8.56,5.83-12.92s.22-9.26-2.93-12.59c-4.52-4.76-12.37-4.62-18.92-6.46-4.31-1.21-8.24-3.4-12.53-4.69-4-1.2-9.25-1.48-13.16.26-3.27,1.47-3.61,5-6.28,6.86-3.1,2.13-6.58,1.56-7.22,6.39A12.93,12.93,0,0,0,215.16,72Z" fill="#fff"></path><path d="M238.56,104.79c-1.53,0-3.09-.07-4.67-.22a20.33,20.33,0,0,1-7.44-1.84,8.78,8.78,0,0,1-4.24-4.35,5.56,5.56,0,0,0,.11,3.47.5.5,0,0,1-.1.5.49.49,0,0,1-.48.16c-3.12-.7-5-3.71-5.39-6.38a21.44,21.44,0,0,1,.19-6.2c.08-.64.16-1.28.22-1.92a32,32,0,0,0-.8-11c-.16-.66-.34-1.31-.53-2-.27-1-.55-2-.76-3h0a13.48,13.48,0,0,1-.29-4.54c.49-3.66,2.53-4.49,4.7-5.38a13.62,13.62,0,0,0,2.73-1.36,9.39,9.39,0,0,0,2.51-3,8.92,8.92,0,0,1,3.86-3.91c4.29-1.91,9.79-1.4,13.51-.28a62.39,62.39,0,0,1,6.05,2.29,59.56,59.56,0,0,0,6.47,2.4c1.85.52,3.86.89,5.8,1.24,4.92.91,10,1.84,13.34,5.36,3.87,4.08,3.58,9.91,3.07,13-.89,5.3-3.12,10.23-6,13.19a24.18,24.18,0,0,1-5.14,3.67A31.81,31.81,0,0,0,261,97.69C255.52,102.29,247.53,104.79,238.56,104.79Zm-16.25-8.43h.1a.5.5,0,0,1,.4.42,7.11,7.11,0,0,0,4.09,5,19.5,19.5,0,0,0,7.08,1.73c10.57,1,20.17-1.43,26.33-6.65a32.81,32.81,0,0,1,4.49-3,22.68,22.68,0,0,0,4.93-3.51c2.72-2.81,4.85-7.54,5.7-12.65.49-2.93.77-8.39-2.8-12.16-3.12-3.28-7.82-4.15-12.8-5.06-2-.36-4-.74-5.89-1.27a58.54,58.54,0,0,1-6.58-2.44,60.86,60.86,0,0,0-6-2.25c-3.55-1.07-8.77-1.57-12.81.24a8,8,0,0,0-3.42,3.52,10.14,10.14,0,0,1-2.79,3.29,14.54,14.54,0,0,1-2.92,1.47c-2.06.84-3.68,1.5-4.08,4.58a12.06,12.06,0,0,0,.27,4.21c.2,1,.48,2,.75,2.9.18.67.37,1.33.53,2a33.41,33.41,0,0,1,.83,11.31c-.06.65-.15,1.3-.23,2a20.67,20.67,0,0,0-.19,5.92,6.94,6.94,0,0,0,3.78,5.3,6.72,6.72,0,0,1,.76-4.66A.48.48,0,0,1,222.31,96.36Z" fill="#231f20"></path><path d="M232.38,80.89s-.67,9.65.82,10.12,4.22-1.18,4.22-1.18" fill="#fff"></path><path d="M233.8,91.59a2.27,2.27,0,0,1-.75-.11c-1.62-.51-1.43-6.88-1.17-10.63a.51.51,0,0,1,.54-.46.5.5,0,0,1,.46.53c-.33,4.8-.11,9.21.49,9.62,1,.32,3.08-.71,3.79-1.14a.5.5,0,1,1,.52.86A9.31,9.31,0,0,1,233.8,91.59Z" fill="#231f20"></path><path d="M252.3,96.25l-4-3.66s-2.75,3.75-8.85-.5-15.3-25.53-15.3-25.53,17.17,8.83,19.24,5.69c-2.09-3.7,1.65-6.7,6.51-2.86,3.79,3,1.58,8,1.58,8l11.15,12.76" fill="#fff"></path><path d="M252.3,96.75a.46.46,0,0,1-.33-.13l-3.64-3.33c-1,.91-4,2.8-9.16-.79-6.14-4.29-15.1-24.86-15.47-25.74a.49.49,0,0,1,.68-.64c6.7,3.44,16.54,7.43,18.41,6a3.47,3.47,0,0,1,.54-4.29c1.22-1,3.75-1.37,6.89,1.12,3.49,2.76,2.27,7.08,1.85,8.26L263,89.79a.51.51,0,0,1,0,.71.51.51,0,0,1-.71,0L251.12,77.69a.49.49,0,0,1-.08-.53c.08-.19,2-4.66-1.44-7.38-2.5-2-4.62-2-5.62-1.14-.85.73-.9,2-.14,3.36a.51.51,0,0,1,0,.52c-2,3-14.06-2.61-18.64-4.88,2.09,4.64,9.5,20.51,14.56,24,5.6,3.9,8.07.75,8.17.61a.52.52,0,0,1,.35-.2.56.56,0,0,1,.39.13l4,3.66a.5.5,0,0,1,0,.71A.49.49,0,0,1,252.3,96.75Z" fill="#231f20"></path><path d="M248.31,92.59s3.76-3,3.47-9.09c0,0,4.53,7.19.52,12.75Z" fill="#231f20"></path><path d="M252.3,96.75a.51.51,0,0,1-.33-.13L248,93a.51.51,0,0,1-.16-.39.54.54,0,0,1,.19-.37,10.71,10.71,0,0,0,3.28-8.68.5.5,0,0,1,.35-.49.49.49,0,0,1,.57.2c.19.31,4.66,7.55.51,13.31a.52.52,0,0,1-.36.21Zm-3.25-4.16,3.16,2.9c2.19-3.53,1-7.69,0-10A11.44,11.44,0,0,1,249.05,92.59Z" fill="#231f20"></path><ellipse cx="234.83" cy="79.93" rx="0.81" ry="2.25" transform="translate(-9.78 121.19) rotate(-28.37)" fill="#231f20"></ellipse><path d="M278.29,92.79c-.91-.65-12.2-11.73-17.82-8.8S249,94.88,246.07,104.4s-3.75,22.94-3.75,22.94l36.21,27.59L310,132.47S290.06,101.2,278.29,92.79Z" fill="#5F8D4E"></path><path d="M278.53,154.93s-41.12,9.4-45.27,19.65,21.11,32.95,21.11,32.95l26.12-4.39-8.21-13.25s42.87,10.32,57.15-9.45-6.23-45-19.41-51.63Z" fill="#231f20"></path><path d="M254.37,208a.53.53,0,0,1-.34-.13c-1-.94-25.47-23.05-21.23-33.51,4.13-10.2,42.62-19.26,45.51-19.92l31.39-26a.49.49,0,0,1,.54-.07c9.12,4.56,20.45,17,23.63,30,2,8.32.68,15.86-4,22.4C323.89,189,312,193.19,295.5,193.08a118.37,118.37,0,0,1-22.17-2.45l7.58,12.25a.47.47,0,0,1,0,.46.52.52,0,0,1-.37.29L254.45,208Zm55.72-78.63-31.24,25.91a.41.41,0,0,1-.21.1c-.41.1-40.91,9.46-44.92,19.35-3.8,9.38,18.57,30.2,20.8,32.24l25.15-4.23-7.81-12.62a.49.49,0,0,1,.54-.74,116.35,116.35,0,0,0,23.12,2.67c11.31.11,26.25-1.9,33.5-11.94,4.55-6.29,5.85-13.55,3.88-21.57C329.82,146,319,134,310.09,129.4Zm-31.56,25.53h0Z" fill="#231f20"></path><path d="M271.39,231.45s2.87,4.19,7.33,5.19,15.19-1,15.19-1l1.95,6.17H250.71C248.87,235.11,265.17,233,271.39,231.45Z" fill="#5F8D4E"></path><path d="M297.88,192.54c-4.31,0-8.27-.37-11.33-.66-2.72-.25-5.53-.51-5.94-.17a.5.5,0,0,1-.74-.67c.62-.69,2.41-.56,6.77-.15,8.81.83,25.21,2.36,35.25-6.48a.51.51,0,0,1,.71.05.49.49,0,0,1-.05.7C315.73,191.16,306.17,192.54,297.88,192.54Z" fill="#fff"></path><path d="M342.86,229.35s-.13,6.5-1.23,7.84-5.61,2.32-4.64,4,9.52,1.46,12.82,0,10-24.66,9.28-24.9-8.48-.52-8.48-.52S348,229,342.86,229.35Z" fill="#5F8D4E"></path><path d="M248.19,116.72s-5,24.78-7.95,27.47-41.36,20.25-43.8,20.68-11.47-1.41-11.23,0,4.39,2.87,4.39,2.87-6.83-1.47-5.85,1.46,3.9,9.76,9.27,10,54.68-17.33,63.71-23.68,12.19-35.15,12.19-35.15" fill="#fff"></path><path d="M193.12,179.71H193c-5.92-.27-8.94-8-9.73-10.35a1.63,1.63,0,0,1,.25-1.69,4.08,4.08,0,0,1,3-.81c-.9-.54-1.68-1.2-1.8-1.91a.73.73,0,0,1,.19-.66c.59-.64,2.39-.54,6.36-.15a28.27,28.27,0,0,0,5.08.24c2.63-.47,40.8-18,43.55-20.56,2.31-2.11,6.41-20.35,7.8-27.2a.49.49,0,0,1,.59-.39.5.5,0,0,1,.39.59c-.52,2.55-5.14,25-8.1,27.74s-41.21,20.3-44.05,20.8a26.71,26.71,0,0,1-5.36-.23c-1.89-.18-4.69-.45-5.42-.21.35.7,2.28,1.73,4,2.34a.49.49,0,0,1,.31.61.5.5,0,0,1-.58.36c-1.79-.39-4.59-.6-5.23.11-.06.06-.21.23-.05.7.74,2.21,3.55,9.43,8.82,9.67h.13c6.08,0,54.49-17.41,63.27-23.59s11.95-34.51,12-34.79a.5.5,0,1,1,1,.11c-.13,1.18-3.28,29.1-12.39,35.5C248.17,162.16,199.29,179.71,193.12,179.71Z" fill="#231f20"></path><path d="M228.73,120.53a2.84,2.84,0,0,0,.34,1.65,23.35,23.35,0,0,0,2.61,4.42,8.15,8.15,0,0,0,2.31,2.26,3.6,3.6,0,0,0,3.12.38,3.44,3.44,0,0,0,2-2.46,6,6,0,0,0-.25-3.22c-.67-2.08-2.31-4.58-4.38-5.51C232.72,117.28,229.17,118.42,228.73,120.53Z" fill="#fff"></path><path d="M236,129.94a4.55,4.55,0,0,1-2.28-.65,8.74,8.74,0,0,1-2.45-2.39,23.54,23.54,0,0,1-2.66-4.51,3.23,3.23,0,0,1-.38-2h0a3.75,3.75,0,0,1,2.13-2.44,5.41,5.41,0,0,1,4.27-.4c2.25,1,4,3.65,4.66,5.82a6.57,6.57,0,0,1,.26,3.49,4,4,0,0,1-2.26,2.81A3.47,3.47,0,0,1,236,129.94Zm-2.87-11.63a5.39,5.39,0,0,0-2.32.57,2.91,2.91,0,0,0-1.6,1.75h0a2.5,2.5,0,0,0,.31,1.35,22.61,22.61,0,0,0,2.55,4.32,7.69,7.69,0,0,0,2.16,2.13,3.12,3.12,0,0,0,2.68.35,2.94,2.94,0,0,0,1.66-2.11,5.59,5.59,0,0,0-.23-3c-.61-1.9-2.16-4.33-4.12-5.21A2.59,2.59,0,0,0,233.14,118.31Zm-4.41,2.22h0Z" fill="#231f20"></path><path d="M241.21,91h-.06a.5.5,0,0,1,0-1,4.86,4.86,0,0,0,3.13-1.25,5.64,5.64,0,0,0,1.45-4.21.5.5,0,0,1,.5-.5.51.51,0,0,1,.5.5A6.58,6.58,0,0,1,245,89.46,5.71,5.71,0,0,1,241.21,91Z" fill="#231f20"></path><path d="M365.68,242.91H34.32a.51.51,0,0,1-.5-.5.5.5,0,0,1,.5-.5H365.68a.5.5,0,0,1,.5.5A.51.51,0,0,1,365.68,242.91Z" fill="#d1d3d4"></path><path d="M157.38,242.41a16.64,16.64,0,0,0-1.21-3.52,5.63,5.63,0,0,0-2.73-3c-1.29-.51-3.07.07-3.38,1.43a6.78,6.78,0,0,0-2.77-5.42c-1.17-.84-3.28-1-3.61.44a6.46,6.46,0,0,0-2-4.67,3.6,3.6,0,0,0-4.68-.12c2.14-2.58-5.75-5-7.26-5.24a12,12,0,0,0-4.77,0,8.32,8.32,0,0,0-3.9,2.31c-.89-1.2-1.75-2.34-3.39-2.53a4.06,4.06,0,0,0-3.87,1.95,4.38,4.38,0,0,0-6.11,2.13A16.14,16.14,0,0,0,90.57,224c-.66.32-1.4.93-1.17,1.63A7.43,7.43,0,0,0,86,223.53c-1.33-.25-2.93.52-3.09,1.85a4.19,4.19,0,0,0-2.6-1c-.94.1-1.77,1.25-1.21,2-1.14-1.47-3.49-1.51-5-.49a7.74,7.74,0,0,0-2.89,4.62,5.39,5.39,0,0,0-8.53,6.53,4,4,0,0,0-4.74,1.86,6.28,6.28,0,0,0-.75,3.49Z" fill="#fff"></path><path d="M157.38,242.91H57.13a.5.5,0,0,1-.5-.48,6.61,6.61,0,0,1,.82-3.76,4.76,4.76,0,0,1,4.25-2.34,5.88,5.88,0,0,1,9.2-6.72,7.63,7.63,0,0,1,2.86-4.12,4.72,4.72,0,0,1,4.75-.24l0-.09a2.16,2.16,0,0,1,1.69-1.26,3.79,3.79,0,0,1,2.36.7,2.83,2.83,0,0,1,.81-1,3.53,3.53,0,0,1,2.66-.6,6.62,6.62,0,0,1,3,1.59,2.92,2.92,0,0,1,1.3-1.11,16.69,16.69,0,0,1,17.19,1.83,5,5,0,0,1,6.12-2,4.6,4.6,0,0,1,4.1-1.79,4.87,4.87,0,0,1,3.4,2.28,8.21,8.21,0,0,1,3.72-2.06,12.37,12.37,0,0,1,5,0c.85.15,7,1.8,7.92,4.22a1.61,1.61,0,0,1,.11.42,4.43,4.43,0,0,1,4.15.82,6.44,6.44,0,0,1,2,3.8l.31-.14a3.74,3.74,0,0,1,3.23.55,7.29,7.29,0,0,1,2.83,4.4,2.85,2.85,0,0,1,.46-.31,3.35,3.35,0,0,1,2.75-.15,6,6,0,0,1,3,3.26,16.91,16.91,0,0,1,1.24,3.63.46.46,0,0,1-.1.42A.47.47,0,0,1,157.38,242.91Zm-99.76-1h99.12a16.25,16.25,0,0,0-1-2.81,5.13,5.13,0,0,0-2.47-2.77,2.41,2.41,0,0,0-1.91.12,1.49,1.49,0,0,0-.79,1,.49.49,0,0,1-.54.39.51.51,0,0,1-.45-.49,6.26,6.26,0,0,0-2.57-5,2.77,2.77,0,0,0-2.29-.43.78.78,0,0,0-.53.58.52.52,0,0,1-.54.38.49.49,0,0,1-.45-.47,6.16,6.16,0,0,0-1.8-4.31,3.1,3.1,0,0,0-4-.14.49.49,0,0,1-.69,0,.5.5,0,0,1,0-.68.8.8,0,0,0,.2-.85c-.6-1.63-5.56-3.3-7.16-3.58a11.5,11.5,0,0,0-4.57,0,7.94,7.94,0,0,0-3.68,2.19.52.52,0,0,1-.39.13.49.49,0,0,1-.36-.2c-.81-1.11-1.58-2.16-3-2.32a3.55,3.55,0,0,0-3.39,1.71.52.52,0,0,1-.31.23.5.5,0,0,1-.38-.06,3.89,3.89,0,0,0-5.39,1.88.48.48,0,0,1-.34.31.49.49,0,0,1-.45-.11,15.64,15.64,0,0,0-16.6-2.1c-.52.25-1,.68-.92,1a.5.5,0,0,1-.81.53A6.91,6.91,0,0,0,85.89,224a2.51,2.51,0,0,0-1.88.43,1.44,1.44,0,0,0-.63,1,.49.49,0,0,1-.29.4.51.51,0,0,1-.49,0,3.72,3.72,0,0,0-2.26-.91,1.19,1.19,0,0,0-.88.67.55.55,0,0,0,0,.54.51.51,0,0,1-.1.7.51.51,0,0,1-.7-.09c-1-1.3-3.06-1.24-4.37-.38a7.15,7.15,0,0,0-2.68,4.33.5.5,0,0,1-.37.35.48.48,0,0,1-.48-.14A4.89,4.89,0,0,0,63,236.79a.5.5,0,0,1-.62.73,3.54,3.54,0,0,0-4.11,1.65A5.46,5.46,0,0,0,57.62,241.91Z" fill="#231f20"></path><path d="M139.22,157.5a.45.45,0,0,1-.34-.14.5.5,0,0,1,0-.71c1.84-1.89,6-2.85,6.61-2.85a.51.51,0,0,1,.5.49.52.52,0,0,1-.5.51c-.4,0-4.25.85-5.9,2.55A.51.51,0,0,1,139.22,157.5Z" fill="#d1d3d4"></path><path d="M152.61,142a.52.52,0,0,1-.21,0,.49.49,0,0,1-.29-.45,17.56,17.56,0,0,0-5.66-2.9.5.5,0,0,1,.25-1c1.87.49,5.86,2.47,6.34,3.49a.65.65,0,0,1,0,.58A.48.48,0,0,1,152.61,142Z" fill="#d1d3d4"></path><path d="M136.72,140.34a.57.57,0,0,1-.18,0c-1.49-.56-5.67-1.95-7.16-1.66a.5.5,0,0,1-.58-.4.49.49,0,0,1,.39-.58c2-.39,7.13,1.49,7.7,1.71a.5.5,0,0,1,.3.64A.51.51,0,0,1,136.72,140.34Z" fill="#d1d3d4"></path><path d="M45.75,245.15a.51.51,0,0,1-.45-.27l-2.36-4.64a.5.5,0,0,1,.22-.68.51.51,0,0,1,.67.22l2.36,4.64a.5.5,0,0,1-.44.73Z" fill="#d1d3d4"></path><path d="M48.26,245.53a.49.49,0,0,1-.48-.36,17.49,17.49,0,0,1-.46-7.41.52.52,0,0,1,.58-.42.51.51,0,0,1,.41.58,16.41,16.41,0,0,0,.43,7,.5.5,0,0,1-.34.62Z" fill="#d1d3d4"></path><path d="M199.77,244.9a.49.49,0,0,1-.49-.4,15.21,15.21,0,0,0-1.53-4.23.5.5,0,0,1,.88-.48,16.2,16.2,0,0,1,1.63,4.52.5.5,0,0,1-.4.58Z" fill="#d1d3d4"></path><path d="M204.3,244.9a.51.51,0,0,1-.5-.43,18.63,18.63,0,0,1,.24-6.74.5.5,0,1,1,1,.22,17.5,17.5,0,0,0-.23,6.37.5.5,0,0,1-.42.57Z" fill="#d1d3d4"></path><path d="M209.11,244.91a.5.5,0,0,1-.49-.43,7.12,7.12,0,0,1,.83-4.48.5.5,0,0,1,.87.49,6.13,6.13,0,0,0-.71,3.85.5.5,0,0,1-.43.56Z" fill="#d1d3d4"></path><path d="M243.86,245.7a.51.51,0,0,1-.5-.43,14.86,14.86,0,0,0-1.78-5.09.52.52,0,0,1,.19-.69.51.51,0,0,1,.68.19,16,16,0,0,1,1.9,5.44.5.5,0,0,1-.42.57Z" fill="#d1d3d4"></path><path d="M239,245.14a.5.5,0,0,1-.5-.46,8.22,8.22,0,0,0-2.38-5.09.5.5,0,0,1,.7-.71,9.23,9.23,0,0,1,2.68,5.72.5.5,0,0,1-.46.54Z" fill="#d1d3d4"></path><path d="M128.57,244.45a.5.5,0,0,1-.49-.4,16.11,16.11,0,0,1,.52-8.15.51.51,0,0,1,.64-.31.5.5,0,0,1,.31.63,15,15,0,0,0-.49,7.64.48.48,0,0,1-.39.58Z" fill="#d1d3d4"></path><path d="M132.43,247.38A.5.5,0,0,1,132,247a11.67,11.67,0,0,1,.74-7.5.5.5,0,0,1,.66-.25.51.51,0,0,1,.25.67,10.63,10.63,0,0,0-.68,6.85.5.5,0,0,1-.37.6Z" fill="#d1d3d4"></path><path d="M80.41,228.38a.5.5,0,0,1-.42-.24,35.81,35.81,0,0,0-2.84-4,.67.67,0,0,1-.51-.16.63.63,0,0,1-.13-.62A.6.6,0,0,1,77,223a.76.76,0,0,1,.77.33,38.62,38.62,0,0,1,3.11,4.31.51.51,0,0,1-.16.69A.56.56,0,0,1,80.41,228.38Z" fill="#d1d3d4"></path><path d="M128.18,153a.5.5,0,0,1-.37-.16.49.49,0,0,1,0-.7,11.92,11.92,0,0,1,6.31-3.12.51.51,0,0,1,.57.42.5.5,0,0,1-.42.57,11,11,0,0,0-5.77,2.85A.49.49,0,0,1,128.18,153Z" fill="#d1d3d4"></path><path d="M110.59,151.5a.51.51,0,0,1-.41-.21.5.5,0,0,1,.12-.7,17.56,17.56,0,0,1,8.72-3.12.49.49,0,0,1,.54.46.5.5,0,0,1-.46.53,16.63,16.63,0,0,0-8.23,2.95A.47.47,0,0,1,110.59,151.5Z" fill="#d1d3d4"></path><path d="M104.09,167.48a.49.49,0,0,1-.44-.73,11.46,11.46,0,0,1,4.9-4.87.49.49,0,0,1,.67.22.5.5,0,0,1-.21.67,10.41,10.41,0,0,0-4.47,4.44A.5.5,0,0,1,104.09,167.48Z" fill="#d1d3d4"></path><path d="M100.86,147.84a.49.49,0,0,1-.45-.29.51.51,0,0,1,.25-.67,29,29,0,0,1,4.88-1.67.5.5,0,0,1,.61.36.51.51,0,0,1-.37.61,27.87,27.87,0,0,0-4.71,1.62A.52.52,0,0,1,100.86,147.84Z" fill="#d1d3d4"></path><path d="M127.49,161.52a.5.5,0,0,1-.37-.84,18.29,18.29,0,0,1,2.52-2.3.5.5,0,1,1,.6.79,18.23,18.23,0,0,0-2.38,2.19A.5.5,0,0,1,127.49,161.52Z" fill="#d1d3d4"></path><path d="M146.1,147.18h0l-3.75-.35a.5.5,0,0,1,.09-1l3.76.35a.5.5,0,0,1-.05,1Z" fill="#d1d3d4"></path><path d="M111.17,139.07a.5.5,0,0,1-.09-1,21.19,21.19,0,0,1,5.79-.2.5.5,0,0,1,.45.55.51.51,0,0,1-.55.45,20,20,0,0,0-5.52.19Z" fill="#d1d3d4"></path><path d="M91,167.48a.52.52,0,0,1-.21,0,.5.5,0,0,1-.25-.66,9.29,9.29,0,0,1,6-4.94.5.5,0,0,1,.6.37.49.49,0,0,1-.37.6,8.45,8.45,0,0,0-5.3,4.38A.49.49,0,0,1,91,167.48Z" fill="#d1d3d4"></path><path d="M128.18,172.8h-.09a.51.51,0,0,1-.41-.58c.3-1.76,2.73-4.78,2.83-4.91a.5.5,0,0,1,.78.63c-.66.81-2.41,3.2-2.62,4.45A.49.49,0,0,1,128.18,172.8Z" fill="#d1d3d4"></path><path d="M116.54,165.87a.5.5,0,0,1-.33-.87l.39-.37a18.75,18.75,0,0,1,3.36-2.76.5.5,0,1,1,.41.91,21.48,21.48,0,0,0-3.08,2.58l-.41.39A.54.54,0,0,1,116.54,165.87Z" fill="#d1d3d4"></path><path d="M224.87,53.93c-1.34-.11-2.9.71-3,2a3.64,3.64,0,0,0,1.53,2.65,2.51,2.51,0,1,0-2.65,4.26,4.64,4.64,0,0,0,2.93.24c-.81-.07-1.4.83-1.43,1.64a2.78,2.78,0,1,0,5.41-.82,3,3,0,1,0,3.15-4.48,2.16,2.16,0,0,0,1.92-2.39A2.53,2.53,0,0,0,230,55.2c-.8,0-2.88.68-2.91,1.77C227.09,55.37,226.56,54.06,224.87,53.93Z" fill="#fff"></path><path d="M225.11,68.15a3.33,3.33,0,0,1-2.2-.88,3.24,3.24,0,0,1-1.14-2.52,2.36,2.36,0,0,1,.26-1,3.62,3.62,0,0,1-1.5-.41,3.12,3.12,0,0,1-1.13-4.25,3,3,0,0,1,2-1.32,5,5,0,0,1,.54-.06,2.77,2.77,0,0,1-.53-1.75,2.42,2.42,0,0,1,.86-1.67,3.8,3.8,0,0,1,2.66-.85h0a2.6,2.6,0,0,1,2.51,2.15,5.38,5.38,0,0,1,2.51-.88A3,3,0,0,1,233.24,57a2.6,2.6,0,0,1-.58,2,3,3,0,0,1-.52.49,3.46,3.46,0,1,1-3.86,5.75,3.63,3.63,0,0,1-.47,1.27,3.27,3.27,0,0,1-2.27,1.59A3.11,3.11,0,0,1,225.11,68.15Zm-1.73-4.47a.88.88,0,0,0-.17.12,1.45,1.45,0,0,0-.44,1,2.4,2.4,0,0,0,2.62,2.34,2.41,2.41,0,0,0,1.82-3,.51.51,0,0,1,.26-.62.5.5,0,0,1,.64.19A2.48,2.48,0,1,0,230.73,60a.5.5,0,0,1-.4-.53.51.51,0,0,1,.48-.46,1.52,1.52,0,0,0,1.07-.58,1.64,1.64,0,0,0,.37-1.23A2,2,0,0,0,230,55.7c-.79,0-2.41.65-2.44,1.29h0a.5.5,0,1,1-1,0h0c.08-2.39-1.26-2.49-1.71-2.52h0a2.7,2.7,0,0,0-1.92.6,1.46,1.46,0,0,0-.52,1c0,.84.68,1.6,1.37,2.25a.5.5,0,0,1-.63.78,2,2,0,0,0-1.56-.3,2.05,2.05,0,0,0-1.33.87,2,2,0,0,0-.19,1.58,2,2,0,0,0,.95,1.26,3.68,3.68,0,0,0,2.14.25,1.5,1.5,0,0,1,.6-.06.5.5,0,0,1,0,1Z" fill="#231f20"></path><path d="M226.82,59a1.5,1.5,0,0,0,0,3A1.5,1.5,0,0,0,226.82,59Z" fill="#231f20"></path></g></svg>