<svg xmlns="http://www.w3.org/2000/svg" viewBox="0 0 400 300" width="406" height="306" class="illustration styles_illustrationTablet__1DWOa"><g id="_56_watering_plant_outline" data-name="#56_watering_plant_outline"><path d="M174.09,164.57s-9.57-3.38-19,6.19S150,193.92,150,193.92s10.39,2,20-10.39A21.84,21.84,0,0,0,174.09,164.57Z" fill="#70cc40"></path><path d="M151.75,195.05a11.15,11.15,0,0,1-2-.15,1,1,0,0,1-.77-.68c-.18-.58-4.28-14.27,5.41-24.16s19.59-6.58,20-6.43a1,1,0,0,1,.61.63,22.63,22.63,0,0,1-4.29,19.88C163.28,193.8,155.35,195.05,151.75,195.05Zm-1-2a15.88,15.88,0,0,0,5.45-.63c3.29-.92,8.21-3.32,13-9.46a21.23,21.23,0,0,0,4.1-17.55c-2-.51-9.7-1.78-17.42,6.09S150.11,190.31,150.76,193Z" fill="#093f68"></path><path d="M143.69,211.18h-.17a1,1,0,0,1-.82-1.15c.12-.76,3.26-18.74,21.32-35.67a1,1,0,1,1,1.37,1.46c-17.54,16.44-20.69,34.36-20.72,34.54A1,1,0,0,1,143.69,211.18Z" fill="#093f68"></path><path d="M108.19,178.88s7.11-4.17,16.08,2S132,198.57,132,198.57s-8,3.22-17.55-5.2A17.75,17.75,0,0,1,108.19,178.88Z" fill="#70cc40"></path><path d="M128,200.19c-3.43,0-8.56-1.1-14.21-6.07a18.61,18.61,0,0,1-6.55-15.36,1,1,0,0,1,.49-.74c.31-.18,7.77-4.41,17.15,2.06s8.17,18.11,8.11,18.6a1,1,0,0,1-.62.82A12.43,12.43,0,0,1,128,200.19Zm-18.81-20.67a16.79,16.79,0,0,0,5.92,13.1c7.56,6.65,14,5.7,15.93,5.2.09-2.42-.13-11.14-7.3-16.1S110.78,178.78,109.15,179.52Z" fill="#093f68"></path><path d="M139.48,211.57a1,1,0,0,1-1-.74h0c0-.13-3.66-13-22.77-25.81a1,1,0,0,1-.27-1.39,1,1,0,0,1,1.39-.28c19.79,13.26,23.44,26.42,23.59,27a1,1,0,0,1-.72,1.22A1.07,1.07,0,0,1,139.48,211.57Z" fill="#093f68"></path><path d="M172.42,227.83a5.81,5.81,0,0,0,.59-2.59c0-3.86-3.63-7-8.11-7a9.19,9.19,0,0,0-1.92.2c-.92-3-4.08-5.22-7.85-5.22a9.64,9.64,0,0,0-2,.23c-.72-4.58-5.26-8.11-10.78-8.11-5,0-9.29,3-10.51,7a11.34,11.34,0,0,0-2.63-.32,9.62,9.62,0,0,0-8.82,5.12l-.7,0c-4.48,0-8.12,3.13-8.12,7a6.41,6.41,0,0,0,1.28,3.72Z" fill="#ad7972"></path><path d="M172.42,228.83h-59.6a1,1,0,0,1-.81-.42,7.37,7.37,0,0,1-1.47-4.3c0-4.41,4.09-8,9.12-8h.11a10.71,10.71,0,0,1,9.41-5.1,12,12,0,0,1,2,.17c1.69-4.07,6.14-6.84,11.16-6.84,5.52,0,10.3,3.36,11.55,8a9.29,9.29,0,0,1,9.75,5c5.61-.73,10.39,3.14,10.39,7.91a6.79,6.79,0,0,1-.69,3A1,1,0,0,1,172.42,228.83Zm-59.06-2h58.4a5,5,0,0,0,.25-1.59c0-3.31-3.19-6-7.11-6a8.6,8.6,0,0,0-1.72.18,1,1,0,0,1-1.16-.69c-.81-2.65-3.64-4.51-6.89-4.51a8.18,8.18,0,0,0-1.81.21,1,1,0,0,1-.78-.15,1,1,0,0,1-.43-.67c-.65-4.15-4.86-7.27-9.79-7.27-4.5,0-8.43,2.58-9.56,6.28a1,1,0,0,1-1.19.68,10.34,10.34,0,0,0-2.39-.29,8.6,8.6,0,0,0-7.92,4.55,1,1,0,0,1-1,.57l-.63,0c-3.93,0-7.12,2.69-7.12,6A5.3,5.3,0,0,0,113.36,226.83Z" fill="#093f68"></path><path d="M224.43,148.36a3.78,3.78,0,0,1-2.09.41L181.88,134a3.77,3.77,0,1,1,.66-7.52l33.56,2.94a3.78,3.78,0,0,1,3.44,4.09C219.42,134.82,225.52,147.78,224.43,148.36Z" fill="#285430"></path><path d="M222.68,149.79l-.43,0a1.14,1.14,0,0,1-.25-.06L181.66,135a4.78,4.78,0,0,1,1-9.5l33.56,2.94a4.78,4.78,0,0,1,4.34,5.17c.05.5,1.14,3.22,2,5.41,3.12,7.82,3.67,9.57,2.35,10.26h0A4.73,4.73,0,0,1,222.68,149.79Zm-.13-2a2.68,2.68,0,0,0,1-.14,67.57,67.57,0,0,0-2.85-7.93c-1.64-4.1-2.2-5.6-2.14-6.32a2.74,2.74,0,0,0-.64-2,2.78,2.78,0,0,0-1.88-1l-33.57-2.93A2.77,2.77,0,0,0,182,133a1.22,1.22,0,0,1,.26.06Zm1.41-.32Z" fill="#093f68"></path><path d="M177.42,115.78c6.3.09,11.32,6,11.21,13.26s-5.32,13-11.62,12.9Z" fill="#285430"></path><path d="M177.17,142.94H177a1,1,0,0,1-1-1l.41-26.17a1,1,0,0,1,.3-.7,1,1,0,0,1,.71-.28c6.85.1,12.32,6.51,12.2,14.27S183.93,142.94,177.17,142.94Zm1.23-26.09L178,140.9c5.29-.5,9.51-5.61,9.61-11.88S183.67,117.52,178.4,116.85Z" fill="#093f68"></path><path d="M247.81,95.72,212.9,114.08a6.77,6.77,0,0,1-9.14-2.84l-4-7.56A26.49,26.49,0,1,1,246.68,79l4,7.56A6.75,6.75,0,0,1,247.81,95.72ZM210.08,107l33.53-17.63L240,82.54a18.94,18.94,0,0,0-33.53,17.63Z" fill="#093f68"></path><path d="M209.76,115.86a8,8,0,0,1-2.31-.35,7.76,7.76,0,0,1-4.58-3.8l-4-7.56a27.49,27.49,0,0,1,48.66-25.59l4,7.56a7.78,7.78,0,0,1-3.26,10.49h0L213.37,115A7.77,7.77,0,0,1,209.76,115.86Zm13.42-50a25.51,25.51,0,0,0-22.51,37.36l4,7.56a5.77,5.77,0,0,0,7.78,2.42l34.92-18.36a5.78,5.78,0,0,0,2.42-7.79l-4-7.56a25.32,25.32,0,0,0-15-12.47A25.84,25.84,0,0,0,223.18,65.86Zm24.63,29.86h0ZM210.08,108a1,1,0,0,1-.89-.54l-3.61-6.86a19.94,19.94,0,0,1,35.3-18.57l3.61,6.87a1,1,0,0,1-.42,1.35l-33.53,17.63A.93.93,0,0,1,210.08,108ZM223.2,73.41A18,18,0,0,0,207.35,99.7l3.15,6L242.26,89l-3.15-6a18,18,0,0,0-15.91-9.6Z" fill="#093f68"></path><path d="M283.9,64.24c-5.47-5.76-13.17-7.61-19.63-4.72-7.63,3.42-10.77,11.77-12,19.32l-5.48-8.18a2,2,0,0,0-2.55-.65L193.75,96.56a2,2,0,0,0-.92,2.47l27.44,69.16a2,2,0,0,0,2.74,1L287.5,135.3a2,2,0,0,0,.72-2.84l-7.11-10.6c6.78-13.26,10.23-25.3,10.26-35.77C291.4,74.57,287.32,67.85,283.9,64.24Zm-7.66,50.36L259.07,89c-.11-7.33,1.22-19.44,8.28-22.57,3.5-1.56,7.84-.37,11.07,3C287.73,79.24,283.68,98.51,276.24,114.6Z" fill="#285430"></path><path d="M222.1,170.43a3,3,0,0,1-1-.18,3,3,0,0,1-1.73-1.69L191.9,99.4a3,3,0,0,1,1.38-3.72l50.49-26.55a3,3,0,0,1,3.85,1l4.12,6.15c1.93-8.87,6.09-14.94,12.12-17.65,6.85-3.06,15-1.12,20.76,4.95h0c3.55,3.74,7.78,10.69,7.75,22.54,0,10.49-3.43,22.5-10.1,35.7l6.78,10.12a3,3,0,0,1-1.09,4.28l-64.48,33.9A2.93,2.93,0,0,1,222.1,170.43Zm23.05-99.64a.93.93,0,0,0-.45.11L194.21,97.45a1,1,0,0,0-.45,1.21l27.43,69.16a1,1,0,0,0,.57.55,1,1,0,0,0,.79-.05L287,134.42a1,1,0,0,0,.49-.62.94.94,0,0,0-.14-.78l-7.1-10.6a1,1,0,0,1-.06-1c6.7-13.12,10.12-25,10.15-35.33,0-11.18-3.9-17.67-7.2-21.15-5.17-5.45-12.43-7.21-18.49-4.5S254.83,69.37,253.26,79a1,1,0,0,1-1.82.39L246,71.22A1,1,0,0,0,245.15,70.79Zm31.09,44.81a1,1,0,0,1-.83-.44L258.24,89.53a1,1,0,0,1-.17-.54c-.07-4.56.38-19.73,8.88-23.5,3.88-1.73,8.67-.45,12.2,3.26,12.09,12.74,1.53,38.64-2,46.27a1,1,0,0,1-.83.58ZM260.06,88.67l16,23.88c8.36-18.88,9-34.66,1.63-42.42-2.94-3.09-6.84-4.19-9.94-2.81C262,69.89,260,80,260.06,88.67Z" fill="#093f68"></path><line x1="216.86" y1="159.6" x2="283.41" y2="124.61" fill="#ffbc0e"></line><path d="M216.86,160.6a1,1,0,0,1-.89-.54,1,1,0,0,1,.42-1.35l66.55-35a1,1,0,0,1,.93,1.77l-66.55,35A1,1,0,0,1,216.86,160.6Z" fill="#093f68"></path><path d="M246,114.52c3.55,6.76.5,9.81-4,12.18s-8.75,3.15-12.3-3.6-.56-20.86-.56-20.86S242.49,107.77,246,114.52Z" fill="#fff"></path><path d="M236.51,129.42c-2.69,0-5.35-1.45-7.66-5.85-3.68-7-.78-20.95-.66-21.54a1,1,0,0,1,1.36-.72c.56.24,13.7,5.76,17.37,12.75h0c4.07,7.73.05,11.17-4.42,13.52A13.34,13.34,0,0,1,236.51,129.42Zm-6.59-25.75c-.61,3.51-2.06,13.73.7,19,3.06,5.83,6.46,5.54,10.95,3.18s6.65-5,3.58-10.82h0C242.4,109.75,233.16,105.15,229.92,103.67Z" fill="#093f68"></path><path d="M303.88,228.83H96.12a1,1,0,0,1,0-2H303.88a1,1,0,0,1,0,2Z" fill="#093f68"></path><path d="M167.47,130.56a1,1,0,0,1-.3-2c1.26-.39,2-.54,2-.55a1,1,0,0,1,.38,2,17.12,17.12,0,0,0-1.82.49A1,1,0,0,1,167.47,130.56Z" fill="#dfeaef"></path><path d="M134.59,175h-.16a1,1,0,0,1-.83-1.14c.21-1.4.47-2.79.75-4.15a1,1,0,1,1,2,.41c-.27,1.32-.51,2.68-.73,4A1,1,0,0,1,134.59,175Zm1.69-8.14a.78.78,0,0,1-.26,0,1,1,0,0,1-.71-1.22c.36-1.37.77-2.73,1.2-4a1,1,0,0,1,1.9.63c-.42,1.28-.81,2.6-1.16,3.93A1,1,0,0,1,136.28,166.9Zm2.6-7.9a1,1,0,0,1-.92-1.38c.53-1.32,1.1-2.62,1.71-3.87a1,1,0,1,1,1.8.88c-.59,1.2-1.14,2.46-1.66,3.74A1,1,0,0,1,138.88,159Zm3.64-7.49a1,1,0,0,1-.5-.13,1,1,0,0,1-.36-1.37c.71-1.22,1.47-2.43,2.27-3.58a1,1,0,1,1,1.64,1.14c-.76,1.11-1.5,2.27-2.18,3.45A1,1,0,0,1,142.52,151.51Zm4.74-6.83a1,1,0,0,1-.64-.23,1,1,0,0,1-.13-1.41c.9-1.09,1.85-2.15,2.83-3.16a1,1,0,0,1,1.42,0,1,1,0,0,1,0,1.41c-.94,1-1.86,2-2.72,3A1,1,0,0,1,147.26,144.68Zm5.82-5.94a1,1,0,0,1-.65-1.76c1.08-.92,2.21-1.8,3.36-2.61a1,1,0,1,1,1.15,1.63c-1.1.78-2.18,1.62-3.21,2.5A1,1,0,0,1,153.08,138.74Zm6.8-4.8a1,1,0,0,1-.5-1.87c1.25-.71,2.52-1.36,3.8-1.94A1,1,0,0,1,164,132a37.6,37.6,0,0,0-3.63,1.85A1,1,0,0,1,159.88,133.94Z" fill="#dfeaef"></path><path d="M133.85,181.19h-.09a1,1,0,0,1-.91-1.08c.06-.68.12-1.35.19-2a1,1,0,0,1,1.11-.89,1,1,0,0,1,.88,1.1c-.07.65-.13,1.31-.19,2A1,1,0,0,1,133.85,181.19Z" fill="#dfeaef"></path><path d="M168.18,122l-.19,0s-.7-.13-1.89-.26a1,1,0,1,1,.21-2c1.29.14,2,.28,2.06.29a1,1,0,0,1-.19,2Z" fill="#dfeaef"></path><path d="M117.85,154.75a1,1,0,0,1-.3,0,1,1,0,0,1-.66-1.25c.4-1.31.85-2.61,1.32-3.84a1,1,0,0,1,1.28-.59,1,1,0,0,1,.59,1.29c-.46,1.2-.89,2.46-1.28,3.73A1,1,0,0,1,117.85,154.75Zm2.83-7.47a1.06,1.06,0,0,1-.42-.09,1,1,0,0,1-.49-1.33c.57-1.25,1.19-2.47,1.83-3.64a1,1,0,0,1,1.75,1c-.62,1.12-1.21,2.3-1.76,3.5A1,1,0,0,1,120.68,147.28Zm3.86-7a1,1,0,0,1-.83-1.56c.76-1.14,1.57-2.25,2.41-3.3a1,1,0,0,1,1.41-.15,1,1,0,0,1,.15,1.4c-.8,1-1.58,2.07-2.3,3.16A1,1,0,0,1,124.54,140.29Zm5-6.24a1,1,0,0,1-.7-.28,1,1,0,0,1,0-1.41c.95-1,2-1.93,3-2.8a1,1,0,0,1,1.29,1.53c-1,.83-1.94,1.73-2.85,2.66A1,1,0,0,1,129.55,134.05Zm6.1-5.15a1,1,0,0,1-.56-1.82c1.12-.77,2.3-1.49,3.49-2.15a1,1,0,0,1,1,1.76,38.85,38.85,0,0,0-3.32,2A1,1,0,0,1,135.65,128.9Zm7-3.84a1,1,0,0,1-.92-.6,1,1,0,0,1,.53-1.32c1.24-.52,2.53-1,3.84-1.42a1,1,0,1,1,.61,1.9c-1.25.4-2.48.86-3.67,1.36A.88.88,0,0,1,142.66,125.06Zm7.62-2.44a1,1,0,0,1-.22-2c1.32-.3,2.67-.54,4-.73a1,1,0,0,1,1.13.85,1,1,0,0,1-.85,1.13c-1.3.18-2.6.41-3.86.7Zm7.92-1.1a1,1,0,0,1,0-2c1.37-.08,2.8-.1,4.08-.08a1,1,0,0,1,0,2c-1.23,0-2.6,0-3.93.08Z" fill="#dfeaef"></path><path d="M116.3,160.6a.83.83,0,0,1-.22,0,1,1,0,0,1-.76-1.19c.15-.67.31-1.33.47-2a1,1,0,0,1,1.94.48c-.16.63-.31,1.27-.45,1.93A1,1,0,0,1,116.3,160.6Z" fill="#dfeaef"></path><path d="M169.62,143.76a1,1,0,0,1-.73-1.68c.86-.93,1.43-1.48,1.43-1.48A1,1,0,0,1,171.7,142s-.54.53-1.35,1.4A1,1,0,0,1,169.62,143.76Z" fill="#dfeaef"></path><path d="M164,151.07a1,1,0,0,1-.5-.14,1,1,0,0,1-.36-1.36,35.54,35.54,0,0,1,2.67-3.92,1,1,0,1,1,1.58,1.23,31.59,31.59,0,0,0-2.52,3.69A1,1,0,0,1,164,151.07Z" fill="#dfeaef"></path><path d="M161.89,157.26h0a1,1,0,0,1-1-1,9.43,9.43,0,0,1,.34-2.2,1,1,0,0,1,1.93.51,7.69,7.69,0,0,0-.27,1.75A1,1,0,0,1,161.89,157.26Z" fill="#dfeaef"></path><path d="M206.64,226.37s3-9.29-9.65-13.23C197,213.14,194.32,224.91,206.64,226.37Z" fill="#70cc40"></path><path d="M206.64,227.37h-.12c-4-.47-6.93-2-8.75-4.6-3-4.22-1.81-9.62-1.76-9.84a1,1,0,0,1,.48-.65,1,1,0,0,1,.8-.09c4.67,1.46,7.87,3.79,9.5,6.94a10.49,10.49,0,0,1,.8,7.56A1,1,0,0,1,206.64,227.37Zm-8.83-12.9a10.92,10.92,0,0,0,1.6,7.15,9.5,9.5,0,0,0,6.44,3.63A8.69,8.69,0,0,0,205,220C203.74,217.61,201.33,215.75,197.81,214.47Z" fill="#093f68"></path><path d="M208.63,226.82s9.72-.94,8.28-14.13C216.91,212.69,205.05,215,208.63,226.82Z" fill="#70cc40"></path><path d="M208.63,227.82a1,1,0,0,1-1-.71c-1.16-3.84-.91-7.16.72-9.86,2.68-4.42,8.1-5.5,8.33-5.54a1,1,0,0,1,.78.18,1,1,0,0,1,.4.69c.54,4.87-.33,8.73-2.56,11.48a10.5,10.5,0,0,1-6.61,3.75ZM216,214a10.89,10.89,0,0,0-5.92,4.33,9.42,9.42,0,0,0-.75,7.35,8.68,8.68,0,0,0,4.46-2.88C215.5,220.67,216.25,217.71,216,214Z" fill="#093f68"></path><path d="M241.76,226.37s3-9.29-9.64-13.23C232.12,213.14,229.45,224.91,241.76,226.37Z" fill="#70cc40"></path><path d="M241.76,227.37h-.11c-4-.47-6.93-2-8.75-4.6-3-4.22-1.81-9.62-1.76-9.84a1,1,0,0,1,1.27-.74c4.68,1.46,7.88,3.79,9.51,6.94a10.52,10.52,0,0,1,.79,7.56A1,1,0,0,1,241.76,227.37Zm-8.82-12.9a10.86,10.86,0,0,0,1.6,7.15,9.5,9.5,0,0,0,6.44,3.63,8.69,8.69,0,0,0-.86-5.25C238.87,217.61,236.46,215.75,232.94,214.47Z" fill="#093f68"></path><path d="M243.76,226.82s9.72-.94,8.28-14.13C252,212.69,240.17,215,243.76,226.82Z" fill="#70cc40"></path><path d="M243.76,227.82a1,1,0,0,1-1-.71c-1.16-3.84-.92-7.16.72-9.86,2.68-4.42,8.1-5.5,8.33-5.54a1,1,0,0,1,.78.18,1,1,0,0,1,.4.69c.53,4.87-.33,8.73-2.56,11.48a10.49,10.49,0,0,1-6.62,3.75ZM251.14,214a10.9,10.9,0,0,0-5.91,4.33,9.42,9.42,0,0,0-.75,7.35,8.68,8.68,0,0,0,4.46-2.88C250.63,220.67,251.37,217.71,251.14,214Z" fill="#093f68"></path><path d="M276.89,226.37s3-9.29-9.64-13.23C267.25,213.14,264.58,224.91,276.89,226.37Z" fill="#70cc40"></path><path d="M276.89,227.37h-.12c-4-.47-6.92-2-8.74-4.6-3-4.22-1.81-9.62-1.76-9.84a1,1,0,0,1,.48-.65,1,1,0,0,1,.79-.09c4.68,1.46,7.88,3.79,9.5,6.94a10.49,10.49,0,0,1,.8,7.56A1,1,0,0,1,276.89,227.37Zm-8.83-12.9a10.88,10.88,0,0,0,1.61,7.15,9.5,9.5,0,0,0,6.44,3.63,8.69,8.69,0,0,0-.86-5.25C274,217.61,271.59,215.75,268.06,214.47Z" fill="#093f68"></path><path d="M278.89,226.82s9.72-.94,8.28-14.13C287.17,212.69,275.3,215,278.89,226.82Z" fill="#70cc40"></path><path d="M278.89,227.82a1,1,0,0,1-1-.71c-1.16-3.84-.92-7.16.72-9.86,2.68-4.42,8.1-5.5,8.33-5.54a1,1,0,0,1,1.18.87c.53,4.87-.33,8.73-2.56,11.48a10.49,10.49,0,0,1-6.62,3.75ZM286.27,214a11,11,0,0,0-5.92,4.33,9.51,9.51,0,0,0-.75,7.35,8.66,8.66,0,0,0,4.47-2.88C285.76,220.67,286.5,217.71,286.27,214Z" fill="#093f68"></path></g></svg>